<svg version="1.1" id="Layer_1" xmlns="http://www.w3.org/2000/svg" xmlns:xlink="http://www.w3.org/1999/xlink" x="0px" y="0px"
	 width="100%" viewBox="0 0 261 193" enable-background="new 0 0 261 193" xml:space="preserve">
<path fill="#134881" opacity="1.000000" stroke="none" 
	d="
M1.000000,159.000000 
	C1.000000,154.310440 1.000000,149.620895 1.196092,144.360641 
	C1.640851,143.617188 1.836638,143.397354 2.443208,143.048691 
	C20.278616,143.023605 37.650364,143.080231 55.146240,143.223816 
	C55.578663,143.359100 55.811974,143.221039 55.984924,142.436325 
	C55.999554,137.231323 55.999554,132.486603 55.999554,127.326836 
	C43.944939,127.326836 32.551575,127.326836 21.038025,127.326836 
	C21.038025,116.509262 21.038025,106.131332 21.038025,95.212418 
	C31.878981,95.212418 42.416649,95.212418 53.018391,95.212418 
	C53.018391,89.919098 53.018391,85.172371 53.018391,79.832359 
	C42.507992,79.832359 32.240318,79.832359 21.837679,79.660873 
	C21.486923,79.290817 21.247475,79.126778 20.874298,78.540054 
	C20.831949,70.391029 20.899670,62.699223 21.173019,54.878338 
	C21.641247,54.549927 21.847876,54.303631 22.458122,53.911140 
	C33.853962,53.811901 44.790215,53.811901 55.688087,53.811901 
	C55.688087,48.259708 55.688087,43.351864 55.688087,37.939026 
	C37.580494,37.939026 19.784830,37.939026 1.859663,37.747604 
	C1.530689,37.313141 1.287302,37.127747 1.000000,37.000000 
	C1.000000,33.638653 1.000000,30.277308 1.188703,26.346279 
	C1.618632,25.602621 1.811805,25.385826 2.424751,25.064423 
	C39.163090,24.985233 75.433617,24.983009 111.704102,24.941744 
	C123.513229,24.928308 135.322235,24.812950 147.429489,24.796295 
	C148.121964,24.803526 148.516235,24.758669 149.383484,24.748558 
	C175.240829,24.866150 200.625198,24.948996 226.112671,25.147346 
	C226.215759,25.262856 226.629730,25.346287 226.629730,25.346287 
	C226.629730,25.346287 226.992737,25.076864 226.893875,25.003002 
	C226.795013,24.929142 226.925522,24.719652 227.137085,24.847145 
	C227.348633,24.974638 227.829437,25.088127 227.839264,25.551016 
	C227.868896,70.307907 227.888733,114.601913 227.853882,158.881836 
	C227.799225,158.867767 227.713409,158.941101 227.532547,158.970215 
	C227.351685,158.999344 227.020218,159.155441 226.556778,159.072388 
	C151.062225,158.992905 76.031113,158.996445 1.000000,159.000000 
M89.171272,64.294930 
	C89.842422,62.249676 90.279465,60.087757 91.229424,58.181446 
	C93.889900,52.842609 97.853508,51.372585 105.976761,52.899902 
	C110.299278,53.712612 110.499214,57.706123 111.150780,61.020363 
	C111.844414,64.548645 112.154648,68.152306 112.657257,71.909729 
	C118.132500,71.909729 123.291245,72.070885 128.425613,71.788704 
	C129.608627,71.723686 131.514969,70.297104 131.724426,69.229492 
	C134.633698,54.400871 124.388908,38.542423 109.464188,36.574165 
	C101.967926,35.585564 93.938408,36.943672 86.404480,38.484547 
	C80.576340,39.676548 75.966492,44.036003 73.806450,49.725876 
	C71.479568,55.855186 68.772064,62.290237 68.541252,68.675423 
	C67.985359,84.053772 68.375549,99.501106 69.145676,114.882477 
	C69.863388,129.216980 75.071396,141.334732 90.988808,144.081421 
	C98.190376,145.324142 105.912994,144.748657 113.229736,143.752792 
	C119.379883,142.915710 123.891281,138.468491 126.801399,132.917404 
	C131.229446,124.470886 132.178741,115.345810 131.991196,105.915817 
	C125.293457,105.915817 119.037491,105.915817 112.451202,105.915817 
	C112.249298,109.712662 112.648399,113.395645 111.726219,116.711113 
	C110.578705,120.836723 109.310394,126.051613 106.266357,128.172180 
	C103.823227,129.874146 97.605125,128.971207 94.971748,126.851692 
	C91.894455,124.374893 89.389252,119.375771 89.248337,115.378845 
	C88.668457,98.931297 89.080215,82.448792 89.348419,65.788971 
	C89.522255,65.521660 89.479424,65.271210 89.171272,64.294930 
M167.586563,71.500168 
	C167.586563,60.545002 167.586563,49.589836 167.586563,38.437260 
	C160.772202,38.437260 154.548416,38.437260 148.225830,38.437260 
	C148.225830,66.038513 147.544250,93.354080 148.499481,120.612282 
	C149.014359,135.304443 157.422226,142.996063 171.262314,144.694946 
	C176.916916,145.389069 182.734573,145.343048 188.434341,144.968597 
	C204.454178,143.916199 213.463745,135.358322 213.869934,119.259460 
	C214.537842,92.786797 214.275772,66.290604 214.379242,39.804234 
	C214.381027,39.347576 214.048584,38.889610 213.905014,38.517517 
	C207.577835,38.517517 201.349426,38.517517 194.911621,38.517517 
	C194.911621,61.728592 194.942688,84.550591 194.879959,107.372337 
	C194.869919,111.024376 194.663803,114.706505 194.159348,118.320427 
	C192.968826,126.849579 189.209671,129.480118 179.043823,129.264725 
	C172.724258,129.130829 168.649246,124.876678 167.953064,117.477638 
	C167.672653,114.497414 167.611588,111.488556 167.602203,108.492256 
	C167.564621,96.494995 167.586517,84.497551 167.586563,71.500168 
M67.452744,111.491356 
	C67.452744,111.491356 67.501434,111.466408 67.452744,111.491356 
M215.517914,116.460587 
	C215.517914,116.460587 215.537659,116.511742 215.517914,116.460587 
M67.520988,72.507027 
	C67.520988,72.507027 67.471527,72.530533 67.520988,72.507027 
z"/>
<path fill="#FAFBFC" opacity="1.000000" stroke="none" 
	d="
M1.000000,159.468658 
	C76.031113,158.996445 151.062225,158.992905 226.653595,159.231598 
	C227.364151,159.675415 227.544876,159.844513 227.826874,160.446167 
	C227.850510,171.613892 227.803253,182.316559 227.600739,193.158691 
	C227.255051,193.505478 227.106552,193.739426 227.000000,194.000000 
	C151.666641,194.000000 76.333290,194.000000 1.000000,194.000000 
	C1.000000,182.565903 1.000000,171.251602 1.000000,159.468658 
M81.764870,167.906616 
	C82.048325,168.069443 82.353218,168.160385 82.835068,169.077316 
	C82.866608,173.708374 82.898148,178.339417 82.423843,183.343857 
	C81.832947,183.746490 81.242050,184.149124 80.193039,184.863907 
	C81.844933,184.863907 82.918739,184.863907 84.659286,185.005280 
	C85.108528,184.960175 85.557770,184.915070 86.659775,185.007172 
	C87.522865,184.964951 88.385963,184.922714 89.830200,184.852051 
	C88.544060,183.973572 87.806992,183.470139 87.097725,182.134583 
	C87.029083,180.752472 86.960442,179.370346 87.051193,177.472794 
	C87.139679,177.316269 87.228165,177.159729 88.172073,177.004562 
	C90.481247,177.002731 92.790428,177.000916 95.574883,177.563080 
	C95.458275,179.858200 95.341667,182.153320 95.201370,184.914780 
	C96.428825,184.914780 97.697823,184.914780 99.426750,185.369690 
	C100.373055,185.431000 101.319351,185.492310 102.265656,185.553635 
	C102.289604,185.185486 102.313560,184.817352 102.337509,184.449219 
	C101.627251,184.316315 100.917000,184.183426 100.098625,183.114624 
	C100.098625,177.789474 100.098625,172.464325 100.098625,167.133972 
	C98.086502,167.133972 95.956413,167.133972 95.229767,167.133972 
	C95.081322,170.235260 94.943375,173.117340 93.977142,175.997025 
	C91.777031,176.024033 89.576920,176.051041 87.072052,175.556564 
	C87.006882,175.366074 86.941711,175.175583 87.020859,174.503265 
	C86.981461,174.340302 86.942070,174.177338 87.057686,173.266251 
	C87.005966,172.507660 86.954247,171.749069 87.023369,170.502945 
	C86.982094,170.340683 86.940819,170.178421 87.081253,169.409760 
	C87.162544,168.995682 87.243828,168.581619 87.796867,168.087860 
	C87.796867,168.087860 88.237343,167.901230 88.237343,167.901230 
	C88.237343,167.901230 88.715668,167.908630 89.053696,167.849457 
	C89.238525,167.591980 89.423347,167.334518 88.694550,167.048233 
	C87.795464,167.029724 86.896385,167.011230 85.339493,166.822281 
	C84.893730,166.879181 84.447968,166.936096 83.108734,166.798584 
	C82.203117,166.891235 81.297508,166.983902 80.456886,167.410721 
	C80.732735,167.576736 81.008583,167.742737 81.764870,167.906616 
M177.371353,171.117477 
	C177.028885,171.776459 176.686417,172.435440 176.343948,173.094421 
	C177.254166,173.133896 177.660446,172.863770 177.827301,172.487473 
	C178.018906,172.055313 177.998413,171.529129 178.235382,170.925049 
	C178.235382,170.925049 178.218033,170.649368 178.218033,170.649368 
	C178.218033,170.649368 177.960922,170.939133 177.371353,171.117477 
M72.720993,168.002670 
	C74.458504,169.058304 76.196014,170.113937 78.059204,171.245926 
	C77.982979,169.878952 77.895531,168.310776 77.816772,166.898514 
	C74.930649,166.898514 72.452019,166.898514 69.331619,166.673706 
	C68.891045,166.748703 68.450462,166.823700 67.118301,166.692566 
	C64.850006,166.692566 62.581707,166.692566 60.102859,166.692566 
	C60.102859,168.533981 60.102859,169.943130 60.102859,171.546432 
	C62.280361,169.863922 63.649769,164.680588 66.941833,170.895981 
	C66.947914,174.924637 66.953995,178.953293 66.436165,183.447876 
	C65.741669,183.810593 65.047173,184.173294 63.304218,185.083588 
	C65.699753,184.969574 66.844826,184.915085 68.658409,185.001434 
	C69.108978,184.954483 69.559555,184.907547 70.722313,185.003159 
	C71.698135,184.929535 72.673950,184.855896 74.124847,184.746429 
	C72.657822,183.906616 71.848595,183.443375 71.091423,182.053864 
	C71.141640,177.693802 71.191856,173.333740 71.536926,168.755508 
	C71.721123,168.590454 71.871346,168.398773 72.720993,168.002670 
M200.283844,184.023956 
	C199.155853,184.005478 198.027847,183.987015 196.870010,183.217438 
	C194.673447,177.473816 192.476868,171.730179 190.280304,165.986557 
	C189.785553,166.035583 189.290802,166.084610 188.796066,166.133652 
	C188.132187,168.770081 187.468307,171.406525 186.299728,174.140808 
	C185.113953,176.320038 183.928177,178.499268 182.603638,180.933502 
	C186.238403,180.524399 188.637390,180.254379 191.677246,180.430695 
	C192.345032,182.653824 191.633804,186.194107 196.486938,185.403122 
	C198.007828,185.229553 199.528702,185.055969 201.832092,185.007797 
	C203.577744,185.007797 205.323380,185.007797 205.693710,185.007797 
	C205.442535,180.427063 205.209763,176.181931 205.680710,171.855698 
	C209.700348,176.308441 213.719986,180.761169 217.739624,185.213913 
	C218.165833,185.054123 218.592056,184.894333 219.018280,184.734558 
	C219.018280,182.820679 219.018280,180.906815 219.505249,178.348190 
	C219.954071,174.399506 220.402893,170.450821 220.863907,166.394897 
	C219.210022,166.394897 217.530853,166.394897 216.682266,166.394897 
	C216.682266,170.470825 216.682266,174.142807 216.089035,177.428955 
	C213.058182,174.044388 210.027328,170.659805 206.606552,166.733505 
	C204.669373,166.514450 202.732208,166.295410 200.795029,166.076370 
	C200.752380,166.547409 200.709732,167.018448 200.667099,167.489502 
	C201.379211,167.643829 202.091339,167.798172 202.980179,168.424454 
	C203.206955,168.647858 203.433731,168.871246 203.746262,170.005157 
	C203.751175,173.406265 204.002792,176.833954 203.640457,180.195480 
	C203.493942,181.554794 202.006668,182.769577 200.283844,184.023956 
M19.652002,171.991898 
	C20.268692,170.157837 20.885384,168.323761 21.506872,166.475433 
	C15.977537,166.475433 11.347736,166.475433 6.717936,166.475433 
	C6.688553,166.770477 6.659171,167.065506 6.629788,167.360550 
	C7.327224,167.553497 8.024660,167.746445 8.924582,168.861221 
	C8.472634,174.224197 10.572251,179.817245 7.178714,185.202850 
	C9.937163,185.017426 12.385503,184.852829 15.403926,185.256073 
	C17.684763,185.506119 19.965601,185.756165 22.799444,186.066818 
	C20.725050,180.241104 17.071264,184.011932 13.957046,182.722168 
	C13.819958,180.819077 13.682870,178.915970 14.200060,177.057220 
	C15.534501,177.789627 16.868942,178.522018 19.032372,179.709412 
	C19.032372,176.762482 19.032372,174.397171 19.652002,171.991898 
M174.562897,176.990051 
	C175.115692,176.589020 175.668488,176.187988 176.221298,175.786972 
	C175.202866,175.524109 174.184448,175.261246 172.800507,174.350388 
	C171.820068,171.787598 170.839630,169.224808 169.557388,165.873123 
	C164.435059,174.252625 171.808197,179.038025 172.405777,185.261734 
	C173.113083,185.175385 173.820389,185.089035 174.527679,185.002686 
	C174.322845,182.344269 174.118011,179.685837 174.562897,176.990051 
M37.849651,184.782501 
	C43.187893,183.017639 45.506210,179.822556 44.885975,175.085098 
	C44.276527,170.430038 41.448559,167.713654 37.126549,167.631821 
	C41.135166,173.818970 41.184555,179.109421 36.457401,183.052567 
	C35.370964,183.034836 34.284527,183.017105 33.019257,182.080719 
	C33.019257,177.292206 33.019257,172.503677 33.019257,167.674255 
	C31.152554,167.861740 29.729664,168.004654 28.145563,168.163773 
	C28.145563,173.702728 28.145563,179.125443 28.145563,184.963440 
	C29.473862,184.963440 30.729004,184.963440 32.529701,185.440308 
	C34.067001,185.202835 35.604301,184.965347 37.849651,184.782501 
M55.149696,183.077911 
	C55.298378,177.757034 53.780132,172.325745 56.202461,167.149246 
	C53.926571,167.149246 51.650684,167.149246 50.061241,167.149246 
	C50.061241,173.133560 50.061241,178.958389 50.061241,184.919968 
	C51.351238,184.919968 53.159573,184.919968 55.367912,185.342834 
	C56.026943,185.302383 56.685974,185.261932 57.345005,185.221481 
	C56.671238,184.813766 55.997471,184.406067 55.149696,183.077911 
M145.196289,184.033249 
	C143.180511,182.738754 140.005447,181.853653 139.375458,180.069763 
	C137.757660,175.488861 137.713882,170.618713 142.175552,166.698532 
	C139.522934,167.616196 136.315521,168.673386 135.538437,170.674377 
	C134.410538,173.578674 134.039169,177.556335 135.143967,180.369873 
	C136.908173,184.862747 141.319504,185.886124 146.736282,185.066986 
	C153.120758,182.801819 155.476883,179.213638 154.250900,173.622879 
	C153.254990,169.081345 150.101486,166.856827 145.345764,167.341110 
	C151.243210,171.489273 151.539978,179.073669 145.196289,184.033249 
M126.378105,168.687851 
	C127.419876,170.033325 128.461639,171.378784 129.777512,173.078262 
	C131.553055,167.554810 131.454315,167.417191 125.474785,166.671936 
	C123.375458,166.789963 121.110527,166.443344 119.210518,167.120575 
	C114.967606,168.632904 113.116837,172.232315 113.332298,176.512390 
	C113.507782,179.998413 114.428383,183.483688 119.465614,184.399048 
	C120.802216,185.014236 122.138817,185.629425 123.475418,186.244629 
	C123.708580,185.830673 123.941742,185.416718 124.174911,185.002762 
	C122.652840,183.998917 121.130775,182.995056 119.246811,181.245316 
	C118.864960,179.474075 118.196892,177.709824 118.153389,175.930298 
	C118.005989,169.900955 120.376587,167.651367 126.378105,168.687851 
M165.830978,177.317673 
	C165.453857,177.619003 165.076736,177.920334 164.699615,178.221664 
	C163.028854,174.655075 160.806946,171.192841 162.550385,167.050964 
	C160.228607,167.050964 157.909729,167.050964 155.988052,167.050964 
	C158.296341,173.262466 160.542313,179.306305 163.021866,185.978668 
	C163.829956,184.745850 164.294769,184.277161 164.476730,183.716629 
	C165.181381,181.545990 165.795914,179.346100 165.905594,176.832169 
	C166.263016,176.636215 166.620422,176.440262 166.977829,176.244293 
	C166.809067,176.568726 166.640320,176.893158 165.830978,177.317673 
M178.370956,168.888687 
	C179.382812,168.379730 180.394669,167.870773 181.406525,167.361832 
	C181.304932,167.043671 181.203323,166.725510 181.101730,166.407349 
	C179.031326,166.407349 176.960938,166.407349 174.890549,166.407349 
	C174.791367,166.728592 174.692169,167.049835 174.592987,167.371078 
	C175.609650,167.876617 176.626312,168.382156 178.370956,168.888687 
M182.645065,185.995026 
	C183.847626,185.818832 185.050171,185.642654 186.252731,185.466476 
	C186.224731,185.021744 186.196716,184.577011 186.168716,184.132278 
	C184.061264,184.132278 181.953812,184.132278 179.846359,184.132278 
	C179.804047,184.563049 179.761734,184.993820 179.719437,185.424591 
	C180.451035,185.611221 181.182632,185.797836 182.645065,185.995026 
M128.236099,183.209045 
	C127.548172,183.151855 126.860245,183.094666 126.172318,183.037491 
	C126.190613,183.431808 126.208908,183.826141 126.227203,184.220459 
	C126.841499,184.029770 127.455795,183.839081 128.236099,183.209045 
M129.540680,179.144165 
	C129.838135,179.088074 130.135574,179.031998 130.433029,178.975891 
	C130.138092,178.907928 129.843170,178.839951 129.540680,179.144165 
M22.231556,179.579880 
	C22.056244,179.829330 21.880932,180.078781 21.705618,180.328232 
	C21.965181,180.168549 22.224743,180.008881 22.231556,179.579880 
M25.494688,184.534225 
	C25.494688,184.534225 25.474075,184.485138 25.494688,184.534225 
M93.466736,185.494919 
	C93.466736,185.494919 93.514816,185.474945 93.466736,185.494919 
M190.495056,185.533340 
	C190.495056,185.533340 190.475052,185.485275 190.495056,185.533340 
z"/>
<path fill="#BF2134" opacity="1.000000" stroke="none" 
	d="
M227.908554,158.895920 
	C227.888733,114.601913 227.868896,70.307907 227.882996,25.259357 
	C227.894455,24.309061 227.871994,24.113310 227.877441,23.455021 
	C227.960861,16.007364 228.016403,9.022245 228.534836,2.018708 
	C239.998489,2.000193 250.999237,2.000097 262.000000,2.000000 
	C262.000000,66.000031 262.000000,130.000061 262.000000,194.000000 
	C251.229080,194.000000 240.583206,194.000000 229.474808,193.531372 
	C229.014328,183.407974 229.070618,173.752640 228.968338,164.098999 
	C228.949921,162.361099 228.278488,160.630096 227.908554,158.895920 
M241.658630,151.165375 
	C236.100815,151.193466 236.100815,151.193466 236.448547,154.873322 
	C238.624252,155.028732 240.814651,155.185181 243.344437,155.365875 
	C241.878586,159.582901 233.063583,157.716980 236.633698,164.990753 
	C241.680847,164.990753 246.805099,164.877151 251.921417,165.029648 
	C255.487732,165.135956 256.124176,163.454941 255.457184,160.537796 
	C253.201599,160.042435 251.157761,159.593567 247.673096,158.828278 
	C250.595856,157.458298 252.224106,156.989731 253.461487,156.021591 
	C254.445511,155.251678 254.951813,153.871185 255.670197,152.761765 
	C254.632248,152.230408 253.618210,151.305725 252.551880,151.240845 
	C249.248947,151.039932 245.926132,151.166153 241.658630,151.165375 
M245.563995,83.117744 
	C242.937256,82.782326 238.235931,81.662773 238.018509,82.237999 
	C236.543671,86.140045 236.015228,90.399796 235.004105,95.422333 
	C242.805328,94.895210 249.001389,94.476547 255.278244,94.052422 
	C256.244415,90.732620 255.009354,90.079391 252.242371,89.905319 
	C250.493347,89.795280 248.821167,88.463501 247.114532,87.679718 
	C248.856400,86.851028 250.642441,86.102013 252.326050,85.168304 
	C253.660019,84.428490 254.868423,83.462242 256.132599,82.596550 
	C255.834396,82.105545 255.536209,81.614540 255.238022,81.123535 
	C252.945023,81.250191 250.643753,81.300201 248.363617,81.546082 
	C247.591248,81.629364 246.872269,82.207718 245.563995,83.117744 
M239.713470,62.031738 
	C235.300247,64.184502 233.842499,67.544968 235.931564,71.053604 
	C237.783859,74.164597 240.821075,75.013573 243.311188,72.650002 
	C246.931992,69.213196 248.322021,71.190231 249.432510,74.370369 
	C250.546143,73.969864 251.626480,73.921051 252.042084,73.370461 
	C253.496719,71.443306 255.566162,69.421463 255.764679,67.283562 
	C255.920578,65.604553 253.901840,62.488945 252.409576,62.187481 
	C250.290329,61.759361 247.697693,63.164303 245.450302,64.121643 
	C244.495728,64.528267 244.013565,65.926430 243.120987,66.623283 
	C241.748322,67.694931 240.206909,68.550430 238.737091,69.497627 
	C238.387283,68.964447 238.037476,68.431259 237.687668,67.898071 
	C238.608719,67.198387 239.930817,66.678070 240.345154,65.751740 
	C240.819519,64.691170 240.487640,63.270000 239.713470,62.031738 
M237.765503,180.984558 
	C237.074188,182.396317 236.382874,183.808090 235.110291,186.406891 
	C241.678024,185.704346 246.417404,185.305679 251.122925,184.660141 
	C254.974411,184.131760 256.230957,181.573349 256.066589,177.878052 
	C255.906357,174.275314 254.228104,172.188507 250.650162,172.071823 
	C245.863342,171.915680 241.067596,172.033188 235.795532,172.033188 
	C235.955444,173.910568 236.082977,175.407791 236.241501,177.268738 
	C241.061523,176.799133 245.290405,176.224014 249.533646,176.084122 
	C250.646469,176.047440 251.803787,177.360718 252.940704,178.054031 
	C251.854324,179.020401 250.841202,180.699844 249.667908,180.820374 
	C246.049088,181.192123 242.369141,180.968735 237.765503,180.984558 
M255.741516,109.257751 
	C255.569672,106.588699 255.397842,103.919655 255.226013,101.250603 
	C254.507401,101.255974 253.788788,101.261337 253.070175,101.266701 
	C252.781250,103.384445 252.492310,105.502190 252.174591,107.830963 
	C250.452469,107.830963 248.703903,107.830963 247.603149,107.830963 
	C246.652954,105.497284 245.912018,103.677582 245.171097,101.857872 
	C244.696732,102.060997 244.222366,102.264122 243.748016,102.467247 
	C243.591034,104.234238 243.434052,106.001221 243.248199,108.093185 
	C241.629654,107.962410 240.275620,107.853004 239.405411,107.782692 
	C238.819931,105.159210 238.369675,103.141647 237.919434,101.124092 
	C237.362000,101.241348 236.804565,101.358612 236.247131,101.475868 
	C236.247131,105.259575 236.247131,109.043282 236.247131,112.993477 
	C241.834045,112.993477 246.978363,113.177132 252.092117,112.863022 
	C253.353989,112.785515 254.516418,111.089127 255.741516,109.257751 
M243.810806,130.776871 
	C247.019897,130.012756 250.295090,129.440994 253.400009,128.373779 
	C254.404068,128.028671 255.443283,126.435631 255.565323,125.315277 
	C255.657669,124.467491 254.471832,122.849113 253.591263,122.629211 
	C247.890381,121.205513 242.117142,120.071480 236.367630,118.842499 
	C236.140656,119.415451 235.913681,119.988396 235.686707,120.561340 
	C238.413101,125.940170 245.451294,122.428925 249.223618,125.651237 
	C235.787399,128.471146 235.787399,128.471146 236.645538,132.033539 
	C238.814545,131.755707 240.991364,131.476883 243.810806,130.776871 
M239.141586,40.398205 
	C243.260925,40.253166 247.385910,39.907585 251.497910,40.023197 
	C255.132904,40.125397 256.149872,38.678070 255.442230,35.419762 
	C248.914963,33.628563 241.299728,38.306759 236.244858,30.525948 
	C235.817688,34.554283 235.757217,37.847599 235.871353,41.134857 
	C235.892853,41.753986 236.610260,42.348953 237.006561,42.955063 
	C237.642426,42.396042 238.278290,41.837021 239.141586,40.398205 
M253.247421,20.237793 
	C254.064606,19.679081 254.881805,19.120369 255.698990,18.561657 
	C255.160660,17.862667 254.730637,16.690519 254.067078,16.538624 
	C248.104996,15.173851 242.101883,13.988342 236.110840,12.750171 
	C235.809845,12.920097 235.508865,13.090024 235.207886,13.259951 
	C237.095703,15.018200 238.983536,16.776449 240.916443,18.576700 
	C239.678894,20.832174 233.912903,19.958227 236.057419,24.287653 
	C241.663605,22.899328 247.025497,21.571497 253.247421,20.237793 
M244.510742,49.960300 
	C241.729950,49.960300 238.949158,49.960300 235.802383,49.960300 
	C235.949493,51.833717 236.057877,53.214100 236.167023,54.604038 
	C236.979721,54.752876 237.448868,54.911324 237.918777,54.913620 
	C242.556595,54.936272 247.198441,54.817677 251.831161,54.974812 
	C255.326904,55.093388 256.065979,53.427517 255.396637,49.960297 
	C252.042221,49.960297 248.764832,49.960297 244.510742,49.960300 
M245.494308,143.067474 
	C248.775543,143.067474 252.056778,143.067474 255.309357,143.067474 
	C255.498535,138.432800 257.674286,139.185486 241.498718,139.245422 
	C239.374374,139.253296 235.299286,137.381927 236.066589,143.067474 
	C238.935516,143.067474 241.726044,143.067474 245.494308,143.067474 
z"/>
<path fill="#FBFCFD" opacity="1.000000" stroke="none" 
	d="
M55.022110,143.136856 
	C37.650364,143.080231 20.278616,143.023605 2.202286,142.986176 
	C1.497702,143.005402 1.000000,143.000000 1.000000,143.000000 
	C1.000000,108.312439 1.000000,73.624878 1.250549,38.506264 
	C1.663787,38.029816 1.826476,37.984421 1.989165,37.939026 
	C19.784830,37.939026 37.580494,37.939026 55.688087,37.939026 
	C55.688087,43.351864 55.688087,48.259708 55.688087,53.811901 
	C44.790215,53.811901 33.853962,53.811901 22.149607,53.891098 
	C21.243467,54.316006 21.105429,54.661709 20.967392,55.007412 
	C20.899670,62.699223 20.831949,70.391029 20.855694,78.823715 
	C21.288988,79.653847 21.630816,79.743103 21.972645,79.832359 
	C32.240318,79.832359 42.507992,79.832359 53.018391,79.832359 
	C53.018391,85.172371 53.018391,89.919098 53.018391,95.212418 
	C42.416649,95.212418 31.878981,95.212418 21.038025,95.212418 
	C21.038025,106.131332 21.038025,116.509262 21.038025,127.326836 
	C32.551575,127.326836 43.944939,127.326836 55.999554,127.326836 
	C55.999554,132.486603 55.999554,137.231323 55.746941,142.492645 
	C55.494324,143.009247 55.022110,143.136856 55.022110,143.136856 
z"/>
<path fill="#C02235" opacity="1.000000" stroke="none" 
	d="
M1.000000,24.000000 
	C1.000000,16.979052 1.000000,9.958103 1.468186,2.444870 
	C50.372208,1.976628 98.808044,2.000671 147.278931,2.490637 
	C147.275589,9.912229 147.237213,16.867897 146.717133,23.876810 
	C97.823639,23.953369 49.411819,23.976683 1.000000,24.000000 
M29.991352,6.055517 
	C29.372862,6.175605 28.213741,6.297122 28.214054,6.415575 
	C28.225145,10.611617 27.988077,14.869357 28.698570,18.959900 
	C28.877811,19.991850 32.494884,21.519226 33.906376,21.026463 
	C37.269157,19.852484 39.409126,9.258842 37.128948,6.570770 
	C36.660095,6.018045 35.307346,6.215093 33.752335,6.607825 
	C33.361397,9.569625 32.970459,12.531425 32.602589,15.318453 
	C32.003338,12.301166 31.382589,9.175636 29.991352,6.055517 
M72.085274,16.150078 
	C72.671326,17.600386 73.257370,19.050694 73.843414,20.501003 
	C74.567734,18.935619 75.292053,17.370235 76.267296,15.262568 
	C77.549850,17.212715 78.715576,18.985214 79.881294,20.757711 
	C80.389069,20.512293 80.896851,20.266872 81.404625,20.021454 
	C80.964699,17.729570 80.081291,15.421149 80.166023,13.148830 
	C80.446587,5.624730 80.364166,5.435422 72.085266,6.551972 
	C72.085266,9.394532 72.085266,12.323129 72.085274,16.150078 
M131.805710,18.017365 
	C132.793610,18.955833 133.781494,19.894304 134.769394,20.832773 
	C134.762466,16.053764 133.907242,12.208649 132.715103,8.470999 
	C132.403717,7.494733 131.146606,6.464009 130.129257,6.195445 
	C129.462021,6.019306 127.916924,6.996172 127.673134,7.750257 
	C126.350510,11.841280 125.310684,16.023729 123.986938,20.855497 
	C127.006897,19.441189 129.106812,18.457756 131.805710,18.017365 
M52.435337,18.044012 
	C51.279438,15.489378 50.123535,12.934744 48.902580,10.236330 
	C49.625168,10.177022 50.974190,10.066298 52.323212,9.955574 
	C52.537895,9.549087 52.752575,9.142599 52.967258,8.736112 
	C51.554676,7.807749 50.227867,6.355530 48.704128,6.106039 
	C47.324211,5.880095 44.554714,6.788580 44.446266,7.506353 
	C44.099014,9.804703 44.702316,12.246670 44.951118,14.758129 
	C44.631298,15.844474 43.425808,18.127909 43.925564,18.597826 
	C45.180618,19.777952 47.169540,20.504688 48.937904,20.683281 
	C49.922955,20.782766 51.055416,19.422596 52.435337,18.044012 
M90.144081,6.561015 
	C88.808014,11.049303 87.471947,15.537591 86.135880,20.025879 
	C88.748566,19.623253 90.395988,17.597984 92.002052,17.630278 
	C93.713501,17.664692 95.385826,19.645157 98.217072,21.540306 
	C96.803802,16.144358 96.051613,12.262276 94.676987,8.614772 
	C94.241737,7.459857 92.144592,6.931251 90.144081,6.561015 
M18.974424,19.018967 
	C19.815517,19.578886 20.656610,20.138805 21.497704,20.698727 
	C21.327753,15.896038 20.320702,11.916452 19.053299,8.021586 
	C18.788351,7.207371 17.636141,6.353095 16.756958,6.170166 
	C16.036228,6.020206 14.552116,6.667908 14.370296,7.258679 
	C13.054390,11.534319 11.983504,15.885367 10.888752,20.010168 
	C13.943010,19.321512 16.326122,18.784182 18.974424,19.018967 
M59.175945,6.053972 
	C58.724323,6.791592 58.272701,7.529212 57.821075,8.266831 
	C62.332798,9.077129 60.534260,12.636113 60.791328,15.238717 
	C60.960754,16.953974 60.823376,18.699535 60.823376,20.431526 
	C61.430492,20.543289 62.037613,20.655052 62.644730,20.766815 
	C63.887428,16.048222 65.130127,11.329626 66.520721,6.049496 
	C64.549820,6.049496 62.280457,6.049496 59.175945,6.053972 
M103.675652,6.242322 
	C103.401253,10.913830 103.126862,15.585338 102.812355,20.939648 
	C106.234879,20.537081 108.562416,20.263309 110.889954,19.989538 
	C110.823395,19.442720 110.756828,18.895901 110.690262,18.349083 
	C109.275894,18.126017 107.861519,17.902948 106.171982,17.636484 
	C106.171982,15.539006 106.379639,13.532022 106.112495,11.590364 
	C105.854889,9.718100 105.107101,7.913278 103.675652,6.242322 
M118.994507,9.949041 
	C118.661278,8.668676 118.328049,7.388312 117.994812,6.107947 
	C117.549797,6.149305 117.104774,6.190663 116.659760,6.232021 
	C116.659760,11.064266 116.659760,15.896511 116.659760,21.347876 
	C120.678558,18.239782 118.304329,14.170716 118.994507,9.949041 
z"/>
<path fill="#FBC03D" opacity="1.000000" stroke="none" 
	d="
M147.198822,23.823566 
	C147.237213,16.867897 147.275589,9.912229 147.439056,2.348122 
	C147.725708,1.502714 147.870987,1.256152 148.000000,1.000000 
	C174.354233,1.000000 200.708450,1.000000 227.527481,1.260797 
	C228.018829,1.693438 228.045380,1.865282 228.071930,2.037127 
	C228.016403,9.022245 227.960861,16.007364 227.695343,23.554886 
	C227.235153,24.258961 227.048538,24.459749 226.925522,24.719652 
	C226.925522,24.719652 226.795013,24.929142 226.651443,24.922508 
	C226.341766,24.954531 226.175659,24.993185 226.009567,25.031839 
	C200.625198,24.948996 175.240829,24.866150 149.247299,24.582401 
	C148.255295,24.192245 147.872452,24.002995 147.415909,23.786613 
	C147.342209,23.759485 147.198822,23.823566 147.198822,23.823566 
z"/>
<path fill="#CB7660" opacity="1.000000" stroke="none" 
	d="
M147.531342,1.000000 
	C147.870987,1.256152 147.725708,1.502714 147.404022,1.882200 
	C98.808044,2.000671 50.372208,1.976628 1.468186,1.976292 
	C2.328392,1.666667 3.656477,1.043330 4.985220,1.041926 
	C52.344337,0.991863 99.703514,1.000000 147.531342,1.000000 
z"/>
<path fill="#963053" opacity="1.000000" stroke="none" 
	d="
M1.000000,24.250000 
	C49.411819,23.976683 97.823639,23.953369 146.717133,23.876810 
	C147.198822,23.823566 147.342209,23.759485 147.299210,24.009148 
	C147.214569,24.420609 147.172943,24.582409 147.131302,24.744207 
	C135.322235,24.812950 123.513229,24.928308 111.704102,24.941744 
	C75.433617,24.983009 39.163090,24.985233 2.187519,25.017803 
	C1.482459,25.032972 1.000000,25.000000 1.000000,25.000000 
	C1.000000,25.000000 1.000000,24.500000 1.000000,24.250000 
z"/>
<path fill="#C31728" opacity="1.000000" stroke="none" 
	d="
M227.853882,158.881836 
	C228.278488,160.630096 228.949921,162.361099 228.968338,164.098999 
	C229.070618,173.752640 229.014328,183.407974 229.006149,193.531372 
	C229.000000,194.000000 228.500000,194.000000 228.204498,193.750946 
	C227.857986,193.341019 227.806992,193.180130 227.755997,193.019241 
	C227.803253,182.316559 227.850510,171.613892 227.879288,160.183594 
	C227.811676,159.284348 227.762543,159.112717 227.713409,158.941101 
	C227.713409,158.941101 227.799225,158.867767 227.853882,158.881836 
z"/>
<path fill="#CD606A" opacity="1.000000" stroke="none" 
	d="
M228.534821,2.018708 
	C228.045380,1.865282 228.018829,1.693438 227.996140,1.260797 
	C239.333328,1.000000 250.666672,1.000000 262.000000,1.500000 
	C250.999237,2.000097 239.998489,2.000193 228.534821,2.018708 
z"/>
<path fill="#F9FAFB" opacity="1.000000" stroke="none" 
	d="
M227.600739,193.158691 
	C227.806992,193.180130 227.857986,193.341019 227.954498,193.750946 
	C228.000000,194.000000 227.500000,194.000000 227.250000,194.000000 
	C227.106552,193.739426 227.255051,193.505478 227.600739,193.158691 
z"/>
<path fill="#003678" opacity="1.000000" stroke="none" 
	d="
M1.859663,37.747604 
	C1.826476,37.984421 1.663787,38.029816 1.250549,38.037605 
	C1.000000,38.000000 1.000000,37.500000 1.000000,37.250000 
	C1.287302,37.127747 1.530689,37.313141 1.859663,37.747604 
z"/>
<path fill="#003176" opacity="1.000000" stroke="none" 
	d="
M1.000000,143.250000 
	C1.000000,143.000000 1.497702,143.005402 1.738624,143.067902 
	C1.836638,143.397354 1.640851,143.617188 1.196092,143.894974 
	C1.000000,144.000000 1.000000,143.500000 1.000000,143.250000 
z"/>
<path fill="#004884" opacity="1.000000" stroke="none" 
	d="
M1.000000,25.250000 
	C1.000000,25.000000 1.482459,25.032972 1.719691,25.079592 
	C1.811805,25.385826 1.618632,25.602621 1.188703,25.888298 
	C1.000000,26.000000 1.000000,25.500000 1.000000,25.250000 
z"/>
<path fill="#F8BF3E" opacity="1.000000" stroke="none" 
	d="
M167.586487,72.000168 
	C167.586517,84.497551 167.564621,96.494995 167.602203,108.492256 
	C167.611588,111.488556 167.672653,114.497414 167.953064,117.477638 
	C168.649246,124.876678 172.724258,129.130829 179.043823,129.264725 
	C189.209671,129.480118 192.968826,126.849579 194.159348,118.320427 
	C194.663803,114.706505 194.869919,111.024376 194.879959,107.372337 
	C194.942688,84.550591 194.911621,61.728592 194.911621,38.517517 
	C201.349426,38.517517 207.577835,38.517517 213.905014,38.517517 
	C214.048584,38.889610 214.381027,39.347576 214.379242,39.804234 
	C214.275772,66.290604 214.537842,92.786797 213.869934,119.259460 
	C213.463745,135.358322 204.454178,143.916199 188.434341,144.968597 
	C182.734573,145.343048 176.916916,145.389069 171.262314,144.694946 
	C157.422226,142.996063 149.014359,135.304443 148.499481,120.612282 
	C147.544250,93.354080 148.225830,66.038513 148.225830,38.437260 
	C154.548416,38.437260 160.772202,38.437260 167.586563,38.437260 
	C167.586563,49.589836 167.586563,60.545002 167.586487,72.000168 
z"/>
<path fill="#FBFBFC" opacity="1.000000" stroke="none" 
	d="
M89.127304,65.979141 
	C89.080215,82.448792 88.668457,98.931297 89.248337,115.378845 
	C89.389252,119.375771 91.894455,124.374893 94.971748,126.851692 
	C97.605125,128.971207 103.823227,129.874146 106.266357,128.172180 
	C109.310394,126.051613 110.578705,120.836723 111.726219,116.711113 
	C112.648399,113.395645 112.249298,109.712662 112.451202,105.915817 
	C119.037491,105.915817 125.293457,105.915817 131.991196,105.915817 
	C132.178741,115.345810 131.229446,124.470886 126.801399,132.917404 
	C123.891281,138.468491 119.379883,142.915710 113.229736,143.752792 
	C105.912994,144.748657 98.190376,145.324142 90.988808,144.081421 
	C75.071396,141.334732 69.863388,129.216980 69.145676,114.882477 
	C68.375549,99.501106 67.985359,84.053772 68.541252,68.675423 
	C68.772064,62.290237 71.479568,55.855186 73.806450,49.725876 
	C75.966492,44.036003 80.576340,39.676548 86.404480,38.484547 
	C93.938408,36.943672 101.967926,35.585564 109.464188,36.574165 
	C124.388908,38.542423 134.633698,54.400871 131.724426,69.229492 
	C131.514969,70.297104 129.608627,71.723686 128.425613,71.788704 
	C123.291245,72.070885 118.132500,71.909729 112.657257,71.909729 
	C112.154648,68.152306 111.844414,64.548645 111.150780,61.020363 
	C110.499214,57.706123 110.299278,53.712612 105.976761,52.899902 
	C97.853508,51.372585 93.889900,52.842609 91.229424,58.181446 
	C90.279465,60.087757 89.842422,62.249676 89.105896,64.895096 
	C89.040527,65.495270 89.127304,65.979141 89.127304,65.979141 
z"/>
<path fill="#CB7660" opacity="1.000000" stroke="none" 
	d="
M147.429489,24.796295 
	C147.172943,24.582409 147.214569,24.420609 147.372910,24.036278 
	C147.872452,24.002995 148.255295,24.192245 148.774323,24.547653 
	C148.516235,24.758669 148.121964,24.803526 147.429489,24.796295 
z"/>
<path fill="#003779" opacity="1.000000" stroke="none" 
	d="
M21.837679,79.660873 
	C21.630816,79.743103 21.288988,79.653847 20.965763,79.280930 
	C21.247475,79.126778 21.486923,79.290817 21.837679,79.660873 
z"/>
<path fill="#003B7B" opacity="1.000000" stroke="none" 
	d="
M67.477089,111.478882 
	C67.501434,111.466408 67.452744,111.491356 67.477089,111.478882 
z"/>
<path fill="#004283" opacity="1.000000" stroke="none" 
	d="
M215.527786,116.486160 
	C215.537659,116.511742 215.517914,116.460587 215.527786,116.486160 
z"/>
<path fill="#003B7B" opacity="1.000000" stroke="none" 
	d="
M67.496262,72.518784 
	C67.471527,72.530533 67.520988,72.507027 67.496262,72.518784 
z"/>
<path fill="#003176" opacity="1.000000" stroke="none" 
	d="
M55.146240,143.223816 
	C55.022110,143.136856 55.494324,143.009247 55.732307,142.952911 
	C55.811974,143.221039 55.578663,143.359100 55.146240,143.223816 
z"/>
<path fill="#00397A" opacity="1.000000" stroke="none" 
	d="
M89.237862,65.884056 
	C89.127304,65.979141 89.040527,65.495270 89.130219,65.266449 
	C89.479424,65.271210 89.522255,65.521660 89.237862,65.884056 
z"/>
<path fill="#003779" opacity="1.000000" stroke="none" 
	d="
M21.173021,54.878338 
	C21.105429,54.661709 21.243467,54.316006 21.690022,53.990341 
	C21.847876,54.303631 21.641247,54.549927 21.173021,54.878338 
z"/>
<path fill="#F9FAFB" opacity="1.000000" stroke="none" 
	d="
M227.532547,158.970215 
	C227.762543,159.112717 227.811676,159.284348 227.808411,159.718536 
	C227.544876,159.844513 227.364151,159.675415 227.117035,159.314636 
	C227.020218,159.155441 227.351685,158.999344 227.532547,158.970215 
z"/>
<path fill="#003E84" opacity="1.000000" stroke="none" 
	d="
M226.112671,25.147346 
	C226.175659,24.993185 226.341766,24.954531 226.750305,24.996370 
	C226.992737,25.076864 226.629730,25.346287 226.629730,25.346287 
	C226.629730,25.346287 226.215759,25.262856 226.112671,25.147346 
z"/>
<path fill="#CB7660" opacity="1.000000" stroke="none" 
	d="
M227.137085,24.847145 
	C227.048538,24.459749 227.235153,24.258961 227.667450,24.017426 
	C227.871994,24.113310 227.894455,24.309061 227.873169,24.796469 
	C227.829437,25.088127 227.348633,24.974638 227.137085,24.847145 
z"/>
<path fill="#1A4C85" opacity="1.000000" stroke="none" 
	d="
M186.804443,174.042953 
	C187.468307,171.406525 188.132187,168.770081 188.796066,166.133652 
	C189.290802,166.084610 189.785553,166.035583 190.280304,165.986557 
	C192.476868,171.730179 194.673447,177.473816 196.652374,183.661713 
	C196.138382,184.296234 195.981522,184.567230 195.964172,184.918976 
	C191.633804,186.194107 192.345032,182.653824 191.172852,179.904099 
	C189.380447,177.599319 188.092453,175.821136 186.804443,174.042953 
z"/>
<path fill="#154982" opacity="1.000000" stroke="none" 
	d="
M203.660507,169.094650 
	C203.433731,168.871246 203.206955,168.647858 203.316467,168.119934 
	C204.767319,167.635361 205.881897,167.455292 206.996475,167.275223 
	C210.027328,170.659805 213.058182,174.044388 216.550018,177.847183 
	C217.680084,178.507919 218.349182,178.750427 219.018280,178.992950 
	C219.018280,180.906815 219.018280,182.820679 219.018280,184.734558 
	C218.592056,184.894333 218.165833,185.054123 217.739624,185.213913 
	C213.719986,180.761169 209.700348,176.308441 205.302490,171.559631 
	C204.503006,170.540604 204.081757,169.817627 203.660507,169.094650 
z"/>
<path fill="#174B84" opacity="1.000000" stroke="none" 
	d="
M94.805420,175.999420 
	C94.943375,173.117340 95.081322,170.235260 95.229767,167.133972 
	C95.956413,167.133972 98.086502,167.133972 100.098625,167.133972 
	C100.098625,172.464325 100.098625,177.789474 99.866699,183.584412 
	C99.412125,184.341080 99.189476,184.627930 98.966827,184.914780 
	C97.697823,184.914780 96.428825,184.914780 95.201370,184.914780 
	C95.341667,182.153320 95.458275,179.858200 95.326599,177.012665 
	C94.987358,176.307968 94.896393,176.153702 94.805420,175.999420 
z"/>
<path fill="#345F8F" opacity="1.000000" stroke="none" 
	d="
M31.984148,184.963440 
	C30.729004,184.963440 29.473862,184.963440 28.145563,184.963440 
	C28.145563,179.125443 28.145563,173.702728 28.145563,168.163773 
	C29.729664,168.004654 31.152554,167.861740 33.019257,167.674255 
	C33.019257,172.503677 33.019257,177.292206 33.007488,182.816925 
	C32.658531,184.023239 32.321339,184.493332 31.984148,184.963440 
z"/>
<path fill="#174A83" opacity="1.000000" stroke="none" 
	d="
M166.444031,177.157104 
	C165.795914,179.346100 165.181381,181.545990 164.476730,183.716629 
	C164.294769,184.277161 163.829956,184.745850 163.021866,185.978668 
	C160.542313,179.306305 158.296341,173.262466 155.988052,167.050964 
	C157.909729,167.050964 160.228607,167.050964 162.550385,167.050964 
	C160.806946,171.192841 163.028854,174.655075 164.699615,178.221680 
	C165.076736,177.920334 165.453857,177.619003 166.149445,177.244858 
	C166.467896,177.172043 166.444016,177.157104 166.444031,177.157104 
z"/>
<path fill="#1B4D85" opacity="1.000000" stroke="none" 
	d="
M118.939087,183.974319 
	C114.428383,183.483688 113.507782,179.998413 113.332298,176.512390 
	C113.116837,172.232315 114.967606,168.632904 119.210518,167.120575 
	C121.110527,166.443344 123.375458,166.789963 125.827881,167.107910 
	C126.134956,167.737244 126.088936,167.930603 126.042923,168.123978 
	C120.376587,167.651367 118.005989,169.900955 118.153389,175.930298 
	C118.196892,177.709824 118.864960,179.474075 119.277122,181.934296 
	C119.184654,183.073639 119.061867,183.523972 118.939087,183.974319 
z"/>
<path fill="#184A84" opacity="1.000000" stroke="none" 
	d="
M146.000305,184.943756 
	C141.319504,185.886124 136.908173,184.862747 135.143967,180.369873 
	C134.039169,177.556335 134.410538,173.578674 135.538437,170.674377 
	C136.315521,168.673386 139.522934,167.616196 142.175552,166.698532 
	C137.713882,170.618713 137.757660,175.488861 139.375458,180.069763 
	C140.005447,181.853653 143.180511,182.738754 145.598450,184.276855 
	C146.000626,184.520477 146.000305,184.943756 146.000305,184.943756 
z"/>
<path fill="#174A84" opacity="1.000000" stroke="none" 
	d="
M146.368286,185.005371 
	C146.000305,184.943756 146.000626,184.520477 146.001038,184.308838 
	C151.539978,179.073669 151.243210,171.489273 145.345764,167.341110 
	C150.101486,166.856827 153.254990,169.081345 154.250900,173.622879 
	C155.476883,179.213638 153.120758,182.801819 146.368286,185.005371 
z"/>
<path fill="#0D437F" opacity="1.000000" stroke="none" 
	d="
M54.967907,184.919968 
	C53.159573,184.919968 51.351238,184.919968 50.061241,184.919968 
	C50.061241,178.958389 50.061241,173.133560 50.061241,167.149246 
	C51.650684,167.149246 53.926571,167.149246 56.201675,167.152313 
	C53.780132,172.325745 55.298378,177.757034 55.108784,183.753494 
	C55.034546,184.592712 55.001225,184.756348 54.967907,184.919968 
z"/>
<path fill="#1A4C85" opacity="1.000000" stroke="none" 
	d="
M37.270958,183.101059 
	C41.184555,179.109421 41.135166,173.818970 37.126549,167.631821 
	C41.448559,167.713654 44.276527,170.430038 44.885975,175.085098 
	C45.506210,179.822556 43.187893,183.017639 37.520592,184.483398 
	C37.218010,183.823212 37.244484,183.462128 37.270958,183.101059 
z"/>
<path fill="#144882" opacity="1.000000" stroke="none" 
	d="
M13.545782,177.012878 
	C13.682870,178.915970 13.819958,180.819077 14.279373,183.196579 
	C14.679081,184.010071 14.756460,184.349152 14.833841,184.688232 
	C12.385503,184.852829 9.937163,185.017426 7.178714,185.202850 
	C10.572251,179.817245 8.472634,174.224197 9.294978,168.322327 
	C10.938172,167.817307 12.210971,167.851181 13.377275,168.313599 
	C13.331698,170.496048 13.392614,172.249908 13.387505,174.377457 
	C13.396246,175.505051 13.471014,176.258957 13.545782,177.012878 
z"/>
<path fill="#184A83" opacity="1.000000" stroke="none" 
	d="
M173.913162,177.027420 
	C174.118011,179.685837 174.322845,182.344269 174.527679,185.002686 
	C173.820389,185.089035 173.113083,185.175385 172.405777,185.261734 
	C171.808197,179.038025 164.435059,174.252625 169.557388,165.873123 
	C170.839630,169.224808 171.820068,171.787598 172.963013,174.961578 
	C173.388062,176.057663 173.650604,176.542542 173.913162,177.027420 
z"/>
<path fill="#114781" opacity="1.000000" stroke="none" 
	d="
M71.242081,168.973679 
	C71.191856,173.333740 71.141640,177.693802 70.850784,182.694656 
	C70.410141,183.843826 70.210129,184.352219 70.010124,184.860596 
	C69.559555,184.907547 69.108978,184.954483 68.281967,184.655045 
	C67.590370,183.866425 67.275223,183.424179 66.960075,182.981949 
	C66.953995,178.953293 66.947914,174.924637 67.235413,170.185791 
	C67.689293,168.616623 67.849594,167.757660 68.009888,166.898697 
	C68.450462,166.823700 68.891045,166.748703 69.814667,167.020172 
	C70.591446,167.604111 70.885178,167.841614 71.143768,168.306335 
	C71.108627,168.533585 71.242073,168.973679 71.242081,168.973679 
z"/>
<path fill="#114781" opacity="1.000000" stroke="none" 
	d="
M82.929695,182.970474 
	C82.898148,178.339417 82.866608,173.708374 83.010269,168.468552 
	C83.457710,167.570847 83.729950,167.281921 84.002197,166.992996 
	C84.447968,166.936096 84.893730,166.879181 85.852188,167.142853 
	C86.684967,167.698151 87.005043,167.932846 87.325119,168.167542 
	C87.243828,168.581619 87.162544,168.995682 86.878235,169.817444 
	C86.522331,170.529068 86.598099,170.784180 86.902527,170.990479 
	C86.954247,171.749069 87.005966,172.507660 86.866577,173.741852 
	C86.514458,174.514496 86.581482,174.770370 86.876549,174.985092 
	C86.941711,175.175583 87.006882,175.366074 87.101852,175.840485 
	C87.131645,176.124405 86.928917,175.978958 86.754471,176.147827 
	C86.683952,176.873871 86.787872,177.431046 86.891800,177.988235 
	C86.960442,179.370346 87.029083,180.752472 86.864410,182.729797 
	C86.423073,183.839996 86.215042,184.354980 86.007011,184.869965 
	C85.557770,184.915070 85.108528,184.960175 84.280319,184.655396 
	C83.577469,183.860504 83.253578,183.415497 82.929695,182.970474 
z"/>
<path fill="#F9FAFB" opacity="1.000000" stroke="none" 
	d="
M219.261765,178.670563 
	C218.349182,178.750427 217.680084,178.507919 216.846619,178.040100 
	C216.682266,174.142807 216.682266,170.470825 216.682266,166.394897 
	C217.530853,166.394897 219.210022,166.394897 220.863907,166.394897 
	C220.402893,170.450821 219.954071,174.399506 219.261765,178.670563 
z"/>
<path fill="#F9FAFB" opacity="1.000000" stroke="none" 
	d="
M13.483769,167.885040 
	C12.210971,167.851181 10.938172,167.817307 9.193735,167.861420 
	C8.024660,167.746445 7.327224,167.553497 6.629788,167.360550 
	C6.659171,167.065506 6.688553,166.770477 6.717936,166.475433 
	C11.347736,166.475433 15.977537,166.475433 21.506872,166.475433 
	C20.885384,168.323761 20.268692,170.157837 19.324894,171.995361 
	C18.997786,171.998840 18.963751,171.966843 18.962276,171.621078 
	C18.587494,167.798904 16.373320,167.296432 13.483769,167.885040 
z"/>
<path fill="#F9FAFB" opacity="1.000000" stroke="none" 
	d="
M186.552094,174.091888 
	C188.092453,175.821136 189.380447,177.599319 190.852417,179.680939 
	C188.637390,180.254379 186.238403,180.524399 182.603638,180.933502 
	C183.928177,178.499268 185.113953,176.320038 186.552094,174.091888 
z"/>
<path fill="#F9FAFB" opacity="1.000000" stroke="none" 
	d="
M13.872921,177.035049 
	C13.471014,176.258957 13.396246,175.505051 13.717745,174.355682 
	C15.730592,173.295761 17.347170,172.631302 18.963749,171.966843 
	C18.963751,171.966843 18.997786,171.998840 19.015079,172.015350 
	C19.032372,174.397171 19.032372,176.762482 19.032372,179.709412 
	C16.868942,178.522018 15.534501,177.789627 13.872921,177.035049 
z"/>
<path fill="#073A7B" opacity="1.000000" stroke="none" 
	d="
M203.703384,169.549896 
	C204.081757,169.817627 204.503006,170.540604 204.950623,171.600189 
	C205.209763,176.181931 205.442535,180.427063 205.693710,185.007797 
	C205.323380,185.007797 203.577744,185.007797 201.437744,184.734833 
	C201.043381,184.461853 201.129501,184.050140 201.129501,184.050140 
	C202.006668,182.769577 203.493942,181.554794 203.640457,180.195480 
	C204.002792,176.833954 203.751175,173.406265 203.703384,169.549896 
z"/>
<path fill="#F9FAFB" opacity="1.000000" stroke="none" 
	d="
M15.118883,184.972153 
	C14.756460,184.349152 14.679081,184.010071 14.569892,183.410248 
	C17.071264,184.011932 20.725050,180.241104 22.799444,186.066818 
	C19.965601,185.756165 17.684763,185.506119 15.118883,184.972153 
z"/>
<path fill="#F9FAFB" opacity="1.000000" stroke="none" 
	d="
M126.210510,168.405914 
	C126.088936,167.930603 126.134956,167.737244 126.182144,167.245728 
	C131.454315,167.417191 131.553055,167.554810 129.777512,173.078262 
	C128.461639,171.378784 127.419876,170.033325 126.210510,168.405914 
z"/>
<path fill="#F9FAFB" opacity="1.000000" stroke="none" 
	d="
M178.006958,168.888184 
	C176.626312,168.382156 175.609650,167.876617 174.592987,167.371078 
	C174.692169,167.049835 174.791367,166.728592 174.890549,166.407349 
	C176.960938,166.407349 179.031326,166.407349 181.101730,166.407349 
	C181.203323,166.725510 181.304932,167.043671 181.406525,167.361832 
	C180.394669,167.870773 179.382812,168.379730 178.006958,168.888184 
z"/>
<path fill="#F9FAFB" opacity="1.000000" stroke="none" 
	d="
M182.279648,185.989746 
	C181.182632,185.797836 180.451035,185.611221 179.719437,185.424591 
	C179.761734,184.993820 179.804047,184.563049 179.846359,184.132278 
	C181.953812,184.132278 184.061264,184.132278 186.168716,184.132278 
	C186.196716,184.577011 186.224731,185.021744 186.252731,185.466476 
	C185.050171,185.642654 183.847626,185.818832 182.279648,185.989746 
z"/>
<path fill="#093A7B" opacity="1.000000" stroke="none" 
	d="
M67.564102,166.795624 
	C67.849594,167.757660 67.689293,168.616623 67.314697,169.727432 
	C63.649769,164.680588 62.280361,169.863922 60.102859,171.546432 
	C60.102859,169.943130 60.102859,168.533981 60.102859,166.692566 
	C62.581707,166.692566 64.850006,166.692566 67.564102,166.795624 
z"/>
<path fill="#093A7B" opacity="1.000000" stroke="none" 
	d="
M71.178909,168.079102 
	C70.885178,167.841614 70.591446,167.604111 70.135559,167.132568 
	C72.452019,166.898514 74.930649,166.898514 77.816772,166.898514 
	C77.895531,168.310776 77.982979,169.878952 78.059204,171.245926 
	C76.196014,170.113937 74.458504,169.058304 72.156357,168.032440 
	C71.591728,168.062195 71.178909,168.079102 71.178909,168.079102 
z"/>
<path fill="#F9FAFB" opacity="1.000000" stroke="none" 
	d="
M206.801514,167.004364 
	C205.881897,167.455292 204.767319,167.635361 203.228104,167.883972 
	C202.091339,167.798172 201.379211,167.643829 200.667099,167.489502 
	C200.709732,167.018448 200.752380,166.547409 200.795029,166.076370 
	C202.732208,166.295410 204.669373,166.514450 206.801514,167.004364 
z"/>
<path fill="#F9FAFB" opacity="1.000000" stroke="none" 
	d="
M119.202347,184.186676 
	C119.061867,183.523972 119.184654,183.073639 119.458069,182.307251 
	C121.130775,182.995056 122.652840,183.998917 124.174911,185.002762 
	C123.941742,185.416718 123.708580,185.830673 123.475418,186.244629 
	C122.138817,185.629425 120.802216,185.014236 119.202347,184.186676 
z"/>
<path fill="#F9FAFB" opacity="1.000000" stroke="none" 
	d="
M36.864182,183.076813 
	C37.244484,183.462128 37.218010,183.823212 37.166569,184.456085 
	C35.604301,184.965347 34.067001,185.202835 32.256924,185.201874 
	C32.321339,184.493332 32.658531,184.023239 33.096905,183.276245 
	C34.284527,183.017105 35.370964,183.034836 36.864182,183.076813 
z"/>
<path fill="#F9FAFB" opacity="1.000000" stroke="none" 
	d="
M200.706665,184.037048 
	C201.129501,184.050140 201.043381,184.461853 201.046478,184.672119 
	C199.528702,185.055969 198.007828,185.229553 196.225555,185.161041 
	C195.981522,184.567230 196.138382,184.296234 196.667297,184.037277 
	C198.027847,183.987015 199.155853,184.005478 200.706665,184.037048 
z"/>
<path fill="#F9FAFB" opacity="1.000000" stroke="none" 
	d="
M99.196793,185.142242 
	C99.189476,184.627930 99.412125,184.341080 99.920761,184.052368 
	C100.917000,184.183426 101.627251,184.316315 102.337509,184.449219 
	C102.313560,184.817352 102.289604,185.185486 102.265656,185.553635 
	C101.319351,185.492310 100.373055,185.431000 99.196793,185.142242 
z"/>
<path fill="#F9FAFB" opacity="1.000000" stroke="none" 
	d="
M174.238037,177.008728 
	C173.650604,176.542542 173.388062,176.057663 173.145752,175.285583 
	C174.184448,175.261246 175.202866,175.524109 176.221298,175.786957 
	C175.668488,176.187988 175.115692,176.589020 174.238037,177.008728 
z"/>
<path fill="#F9FAFB" opacity="1.000000" stroke="none" 
	d="
M94.391281,175.998230 
	C94.896393,176.153702 94.987358,176.307968 95.088959,176.730667 
	C92.790428,177.000916 90.481247,177.002731 87.692650,176.730682 
	C87.118462,176.297546 87.023689,176.138260 86.928917,175.978958 
	C86.928917,175.978958 87.131645,176.124405 87.254227,176.101227 
	C89.576920,176.051041 91.777031,176.024033 94.391281,175.998230 
z"/>
<path fill="#0B3C7C" opacity="1.000000" stroke="none" 
	d="
M86.333389,184.938568 
	C86.215042,184.354980 86.423073,183.839996 86.850510,183.145859 
	C87.806992,183.470139 88.544060,183.973572 89.830200,184.852051 
	C88.385963,184.922714 87.522865,184.964951 86.333389,184.938568 
z"/>
<path fill="#F9FAFB" opacity="1.000000" stroke="none" 
	d="
M128.153107,183.428711 
	C127.455795,183.839081 126.841499,184.029770 126.227203,184.220459 
	C126.208908,183.826141 126.190613,183.431808 126.172318,183.037491 
	C126.860245,183.094666 127.548172,183.151855 128.153107,183.428711 
z"/>
<path fill="#0B3C7C" opacity="1.000000" stroke="none" 
	d="
M82.676773,183.157166 
	C83.253578,183.415497 83.577469,183.860504 83.946945,184.584717 
	C82.918739,184.863907 81.844933,184.863907 80.193039,184.863907 
	C81.242050,184.149124 81.832947,183.746490 82.676773,183.157166 
z"/>
<path fill="#F9FAFB" opacity="1.000000" stroke="none" 
	d="
M55.167908,185.131409 
	C55.001225,184.756348 55.034546,184.592712 55.195786,184.213715 
	C55.997471,184.406067 56.671238,184.813766 57.345005,185.221481 
	C56.685974,185.261932 56.026943,185.302383 55.167908,185.131409 
z"/>
<path fill="#093A7B" opacity="1.000000" stroke="none" 
	d="
M70.366219,184.931885 
	C70.210129,184.352219 70.410141,183.843826 70.824760,183.157791 
	C71.848595,183.443375 72.657822,183.906616 74.124847,184.746429 
	C72.673950,184.855896 71.698135,184.929535 70.366219,184.931885 
z"/>
<path fill="#093A7B" opacity="1.000000" stroke="none" 
	d="
M66.698120,183.214905 
	C67.275223,183.424179 67.590370,183.866425 67.947708,184.584625 
	C66.844826,184.915085 65.699753,184.969574 63.304218,185.083588 
	C65.047173,184.173294 65.741669,183.810593 66.698120,183.214905 
z"/>
<path fill="#F9FAFB" opacity="1.000000" stroke="none" 
	d="
M178.070053,171.043793 
	C177.998413,171.529129 178.018906,172.055313 177.827301,172.487473 
	C177.660446,172.863770 177.254166,173.133896 176.343948,173.094421 
	C176.686417,172.435440 177.028885,171.776459 177.691315,171.056671 
	C178.011276,170.995850 178.070053,171.043793 178.070053,171.043793 
z"/>
<path fill="#F9FAFB" opacity="1.000000" stroke="none" 
	d="
M129.544464,178.958069 
	C129.843170,178.839951 130.138092,178.907928 130.433029,178.975906 
	C130.135574,179.031998 129.838135,179.088074 129.544464,178.958069 
z"/>
<path fill="#F9FAFB" opacity="1.000000" stroke="none" 
	d="
M22.357929,179.714539 
	C22.224743,180.008881 21.965181,180.168549 21.705620,180.328232 
	C21.880932,180.078781 22.056244,179.829330 22.357929,179.714539 
z"/>
<path fill="#0B3C7C" opacity="1.000000" stroke="none" 
	d="
M87.560989,168.127701 
	C87.005043,167.932846 86.684967,167.698151 86.181091,167.228088 
	C86.896385,167.011230 87.795464,167.029724 88.902786,167.243164 
	C88.979240,167.594955 88.847450,167.751785 88.715668,167.908630 
	C88.715668,167.908630 88.237343,167.901230 88.237343,167.901230 
	C88.237343,167.901230 87.796867,168.087860 87.560989,168.127701 
z"/>
<path fill="#0B3C7C" opacity="1.000000" stroke="none" 
	d="
M83.555466,166.895782 
	C83.729950,167.281921 83.457710,167.570847 82.932510,168.019592 
	C82.353218,168.160385 82.048325,168.069443 81.326416,167.672913 
	C80.722610,167.318329 80.557251,167.197449 80.391891,167.076553 
	C81.297508,166.983902 82.203117,166.891235 83.555466,166.895782 
z"/>
<path fill="#184A83" opacity="1.000000" stroke="none" 
	d="
M166.174805,176.994629 
	C166.444016,177.157104 166.467896,177.172043 166.469727,177.194824 
	C166.640320,176.893158 166.809067,176.568726 166.977829,176.244293 
	C166.620422,176.440262 166.263016,176.636215 166.174805,176.994629 
z"/>
<path fill="#0B3C7C" opacity="1.000000" stroke="none" 
	d="
M86.754471,176.147827 
	C87.023689,176.138260 87.118462,176.297546 87.264938,176.729996 
	C87.228165,177.159729 87.139679,177.316269 86.971497,177.730515 
	C86.787872,177.431046 86.683952,176.873871 86.754471,176.147827 
z"/>
<path fill="#F9FAFB" opacity="1.000000" stroke="none" 
	d="
M25.484383,184.509674 
	C25.474075,184.485138 25.494688,184.534225 25.484383,184.509674 
z"/>
<path fill="#F9FAFB" opacity="1.000000" stroke="none" 
	d="
M93.490776,185.484924 
	C93.514816,185.474945 93.466736,185.494919 93.490776,185.484924 
z"/>
<path fill="#F9FAFB" opacity="1.000000" stroke="none" 
	d="
M190.485046,185.509308 
	C190.475052,185.485275 190.495056,185.533340 190.485046,185.509308 
z"/>
<path fill="#0B3C7C" opacity="1.000000" stroke="none" 
	d="
M86.948700,174.744171 
	C86.581482,174.770370 86.514458,174.514496 86.789078,174.115906 
	C86.942070,174.177338 86.981461,174.340302 86.948700,174.744171 
z"/>
<path fill="#F9FAFB" opacity="1.000000" stroke="none" 
	d="
M80.424393,167.243637 
	C80.557251,167.197449 80.722610,167.318329 81.086197,167.673981 
	C81.008583,167.742737 80.732735,167.576736 80.424393,167.243637 
z"/>
<path fill="#F9FAFB" opacity="1.000000" stroke="none" 
	d="
M88.884682,167.879044 
	C88.847450,167.751785 88.979240,167.594955 89.359596,167.257584 
	C89.423347,167.334518 89.238525,167.591980 88.884682,167.879044 
z"/>
<path fill="#F9FAFB" opacity="1.000000" stroke="none" 
	d="
M71.143768,168.306335 
	C71.178909,168.079102 71.591728,168.062195 71.789665,168.121338 
	C71.871346,168.398773 71.721123,168.590454 71.389496,168.864594 
	C71.242073,168.973679 71.108627,168.533585 71.143768,168.306335 
z"/>
<path fill="#0B3C7C" opacity="1.000000" stroke="none" 
	d="
M86.962952,170.746704 
	C86.598099,170.784180 86.522331,170.529068 86.787376,170.120651 
	C86.940819,170.178421 86.982094,170.340683 86.962952,170.746704 
z"/>
<path fill="#F9FAFB" opacity="1.000000" stroke="none" 
	d="
M177.986099,170.967499 
	C177.960922,170.939133 178.218033,170.649368 178.218033,170.649368 
	C178.218033,170.649368 178.235382,170.925049 178.152710,170.984421 
	C178.070053,171.043793 178.011276,170.995850 177.986099,170.967499 
z"/>
<path fill="#F9EDEE" opacity="1.000000" stroke="none" 
	d="
M242.134827,151.165375 
	C245.926132,151.166153 249.248947,151.039932 252.551880,151.240845 
	C253.618210,151.305725 254.632248,152.230408 255.670197,152.761780 
	C254.951813,153.871185 254.445511,155.251678 253.461487,156.021591 
	C252.224106,156.989731 250.595856,157.458298 247.673096,158.828278 
	C251.157761,159.593567 253.201599,160.042435 255.457184,160.537796 
	C256.124176,163.454941 255.487732,165.135956 251.921417,165.029648 
	C246.805099,164.877151 241.680847,164.990753 236.633698,164.990753 
	C233.063583,157.716980 241.878586,159.582901 243.344437,155.365875 
	C240.814651,155.185181 238.624252,155.028732 236.448547,154.873322 
	C236.100815,151.193466 236.100815,151.193466 242.134827,151.165375 
z"/>
<path fill="#F9EDEE" opacity="1.000000" stroke="none" 
	d="
M245.846436,82.838791 
	C246.872269,82.207718 247.591248,81.629364 248.363617,81.546082 
	C250.643753,81.300201 252.945023,81.250191 255.238022,81.123535 
	C255.536209,81.614540 255.834396,82.105545 256.132599,82.596550 
	C254.868423,83.462242 253.660019,84.428490 252.326050,85.168304 
	C250.642441,86.102013 248.856400,86.851028 247.114532,87.679718 
	C248.821167,88.463501 250.493347,89.795280 252.242371,89.905319 
	C255.009354,90.079391 256.244415,90.732620 255.278244,94.052422 
	C249.001389,94.476547 242.805328,94.895210 235.004105,95.422333 
	C236.015228,90.399796 236.543671,86.140045 238.018509,82.237999 
	C238.235931,81.662773 242.937256,82.782326 245.846436,82.838791 
M242.864792,88.414574 
	C242.422943,87.978546 241.981110,87.542519 241.539261,87.106483 
	C241.284317,87.439346 241.029373,87.772209 240.774429,88.105072 
	C241.257187,88.373421 241.739944,88.641769 242.864792,88.414574 
z"/>
<path fill="#F8E9EA" opacity="1.000000" stroke="none" 
	d="
M240.109741,62.018620 
	C240.487640,63.270000 240.819519,64.691170 240.345154,65.751740 
	C239.930817,66.678070 238.608719,67.198387 237.687668,67.898071 
	C238.037476,68.431259 238.387283,68.964447 238.737091,69.497627 
	C240.206909,68.550430 241.748322,67.694931 243.120987,66.623283 
	C244.013565,65.926430 244.495728,64.528267 245.450302,64.121643 
	C247.697693,63.164303 250.290329,61.759361 252.409576,62.187481 
	C253.901840,62.488945 255.920578,65.604553 255.764679,67.283562 
	C255.566162,69.421463 253.496719,71.443306 252.042084,73.370461 
	C251.626480,73.921051 250.546143,73.969864 249.432510,74.370369 
	C248.322021,71.190231 246.931992,69.213196 243.311188,72.650002 
	C240.821075,75.013573 237.783859,74.164597 235.931564,71.053604 
	C233.842499,67.544968 235.300247,64.184502 240.109741,62.018620 
z"/>
<path fill="#F9EEEF" opacity="1.000000" stroke="none" 
	d="
M238.239227,180.980545 
	C242.369141,180.968735 246.049088,181.192123 249.667908,180.820374 
	C250.841202,180.699844 251.854324,179.020401 252.940704,178.054031 
	C251.803787,177.360718 250.646469,176.047440 249.533646,176.084122 
	C245.290405,176.224014 241.061523,176.799133 236.241501,177.268738 
	C236.082977,175.407791 235.955444,173.910568 235.795532,172.033188 
	C241.067596,172.033188 245.863342,171.915680 250.650162,172.071823 
	C254.228104,172.188507 255.906357,174.275314 256.066589,177.878052 
	C256.230957,181.573349 254.974411,184.131760 251.122925,184.660141 
	C246.417404,185.305679 241.678024,185.704346 235.110291,186.406891 
	C236.382874,183.808090 237.074188,182.396317 238.239227,180.980545 
z"/>
<path fill="#F8ECED" opacity="1.000000" stroke="none" 
	d="
M255.733032,109.697350 
	C254.516418,111.089127 253.353989,112.785515 252.092117,112.863022 
	C246.978363,113.177132 241.834045,112.993477 236.247131,112.993477 
	C236.247131,109.043282 236.247131,105.259575 236.247131,101.475868 
	C236.804565,101.358612 237.362000,101.241348 237.919434,101.124092 
	C238.369675,103.141647 238.819931,105.159210 239.405411,107.782692 
	C240.275620,107.853004 241.629654,107.962410 243.248199,108.093185 
	C243.434052,106.001221 243.591034,104.234238 243.748016,102.467247 
	C244.222366,102.264122 244.696732,102.060997 245.171097,101.857872 
	C245.912018,103.677582 246.652954,105.497284 247.603149,107.830963 
	C248.703903,107.830963 250.452469,107.830963 252.174591,107.830963 
	C252.492310,105.502190 252.781250,103.384445 253.070175,101.266701 
	C253.788788,101.261337 254.507401,101.255974 255.226013,101.250603 
	C255.397842,103.919655 255.569672,106.588699 255.733032,109.697350 
z"/>
<path fill="#FAEFF0" opacity="1.000000" stroke="none" 
	d="
M243.489502,130.987457 
	C240.991364,131.476883 238.814545,131.755707 236.645538,132.033539 
	C235.787399,128.471146 235.787399,128.471146 249.226761,125.644760 
	C245.451294,122.428925 238.413101,125.940170 235.686707,120.561340 
	C235.913681,119.988396 236.140656,119.415451 236.367630,118.842499 
	C242.117142,120.071480 247.890381,121.205513 253.591263,122.629211 
	C254.471832,122.849113 255.657669,124.467491 255.565323,125.315277 
	C255.443283,126.435631 254.404068,128.028671 253.400009,128.373779 
	C250.295090,129.440994 247.019897,130.012756 243.489502,130.987457 
z"/>
<path fill="#FAEFF0" opacity="1.000000" stroke="none" 
	d="
M239.027878,40.838104 
	C238.278290,41.837021 237.642426,42.396042 237.006561,42.955067 
	C236.610260,42.348953 235.892853,41.753986 235.871353,41.134857 
	C235.757217,37.847599 235.817688,34.554283 236.244858,30.525948 
	C241.299728,38.306759 248.914963,33.628563 255.442230,35.419762 
	C256.149872,38.678070 255.132904,40.125397 251.497910,40.023197 
	C247.385910,39.907585 243.260925,40.253166 239.027878,40.838104 
z"/>
<path fill="#F9ECED" opacity="1.000000" stroke="none" 
	d="
M252.817413,20.240730 
	C247.025497,21.571497 241.663605,22.899328 236.057419,24.287653 
	C233.912903,19.958227 239.678894,20.832174 240.916443,18.576700 
	C238.983536,16.776449 237.095703,15.018200 235.207886,13.259951 
	C235.508865,13.090024 235.809845,12.920097 236.110840,12.750171 
	C242.101883,13.988342 248.104996,15.173851 254.067078,16.538624 
	C254.730637,16.690519 255.160660,17.862667 255.698990,18.561657 
	C254.881805,19.120369 254.064606,19.679081 252.817413,20.240730 
z"/>
<path fill="#F9ECED" opacity="1.000000" stroke="none" 
	d="
M244.999084,49.960297 
	C248.764832,49.960297 252.042221,49.960297 255.396637,49.960297 
	C256.065979,53.427517 255.326904,55.093388 251.831161,54.974812 
	C247.198441,54.817677 242.556595,54.936272 237.918777,54.913620 
	C237.448868,54.911324 236.979721,54.752876 236.167023,54.604038 
	C236.057877,53.214100 235.949493,51.833717 235.802383,49.960300 
	C238.949158,49.960300 241.729950,49.960300 244.999084,49.960297 
z"/>
<path fill="#F8ECED" opacity="1.000000" stroke="none" 
	d="
M245.005432,143.067474 
	C241.726044,143.067474 238.935516,143.067474 236.066589,143.067474 
	C235.299286,137.381927 239.374374,139.253296 241.498718,139.245422 
	C257.674286,139.185486 255.498535,138.432800 255.309357,143.067474 
	C252.056778,143.067474 248.775543,143.067474 245.005432,143.067474 
z"/>
<path fill="#F4DEE0" opacity="1.000000" stroke="none" 
	d="
M34.362011,6.066549 
	C35.307346,6.215093 36.660095,6.018045 37.128948,6.570770 
	C39.409126,9.258842 37.269157,19.852484 33.906376,21.026463 
	C32.494884,21.519226 28.877811,19.991850 28.698570,18.959900 
	C27.988077,14.869357 28.225145,10.611617 28.214054,6.415575 
	C28.213741,6.297122 29.372862,6.175605 30.450359,6.507070 
	C30.930367,9.905962 30.826956,12.862922 31.053600,15.794361 
	C31.115816,16.599052 32.165718,17.327379 32.762394,18.090748 
	C33.211899,17.352734 34.000038,16.637772 34.052116,15.872707 
	C34.274063,12.612064 34.278309,9.336602 34.362011,6.066549 
z"/>
<path fill="#F7E7E9" opacity="1.000000" stroke="none" 
	d="
M72.085266,15.700902 
	C72.085266,12.323129 72.085266,9.394532 72.085266,6.551972 
	C80.364166,5.435422 80.446587,5.624730 80.166023,13.148830 
	C80.081291,15.421149 80.964699,17.729570 81.404625,20.021454 
	C80.896851,20.266872 80.389069,20.512293 79.881294,20.757711 
	C78.715576,18.985214 77.549850,17.212715 76.267296,15.262568 
	C75.292053,17.370235 74.567734,18.935619 73.843414,20.501003 
	C73.257370,19.050694 72.671326,17.600386 72.085266,15.700902 
z"/>
<path fill="#F8E9EB" opacity="1.000000" stroke="none" 
	d="
M131.506226,17.745846 
	C129.106812,18.457756 127.006897,19.441189 123.986938,20.855497 
	C125.310684,16.023729 126.350510,11.841280 127.673134,7.750257 
	C127.916924,6.996172 129.462021,6.019306 130.129257,6.195445 
	C131.146606,6.464009 132.403717,7.494733 132.715103,8.470999 
	C133.907242,12.208649 134.762466,16.053764 134.769394,20.832773 
	C133.781494,19.894304 132.793610,18.955833 131.506226,17.745846 
z"/>
<path fill="#F5E2E3" opacity="1.000000" stroke="none" 
	d="
M52.278389,18.382124 
	C51.055416,19.422596 49.922955,20.782766 48.937904,20.683281 
	C47.169540,20.504688 45.180618,19.777952 43.925564,18.597826 
	C43.425808,18.127909 44.631298,15.844474 44.951118,14.758129 
	C44.702316,12.246670 44.099014,9.804703 44.446266,7.506353 
	C44.554714,6.788580 47.324211,5.880095 48.704128,6.106039 
	C50.227867,6.355530 51.554676,7.807749 52.967258,8.736112 
	C52.752575,9.142599 52.537895,9.549087 52.323212,9.955574 
	C50.974190,10.066298 49.625168,10.177022 48.902580,10.236330 
	C50.123535,12.934744 51.279438,15.489378 52.278389,18.382124 
z"/>
<path fill="#F8EBEC" opacity="1.000000" stroke="none" 
	d="
M90.476036,6.338520 
	C92.144592,6.931251 94.241737,7.459857 94.676987,8.614772 
	C96.051613,12.262276 96.803802,16.144358 98.217072,21.540306 
	C95.385826,19.645157 93.713501,17.664692 92.002052,17.630278 
	C90.395988,17.597984 88.748566,19.623253 86.135880,20.025879 
	C87.471947,15.537591 88.808014,11.049303 90.476036,6.338520 
z"/>
<path fill="#F7E8EA" opacity="1.000000" stroke="none" 
	d="
M18.841829,18.632910 
	C16.326122,18.784182 13.943010,19.321512 10.888752,20.010168 
	C11.983504,15.885367 13.054390,11.534319 14.370296,7.258679 
	C14.552116,6.667908 16.036228,6.020206 16.756958,6.170166 
	C17.636141,6.353095 18.788351,7.207371 19.053299,8.021586 
	C20.320702,11.916452 21.327753,15.896038 21.497704,20.698727 
	C20.656610,20.138805 19.815517,19.578886 18.841829,18.632910 
z"/>
<path fill="#F7E6E8" opacity="1.000000" stroke="none" 
	d="
M59.593521,6.051734 
	C62.280457,6.049496 64.549820,6.049496 66.520721,6.049496 
	C65.130127,11.329626 63.887428,16.048222 62.644730,20.766815 
	C62.037613,20.655052 61.430492,20.543289 60.823376,20.431526 
	C60.823376,18.699535 60.960754,16.953974 60.791328,15.238717 
	C60.534260,12.636113 62.332798,9.077129 57.821075,8.266832 
	C58.272701,7.529212 58.724323,6.791592 59.593521,6.051734 
z"/>
<path fill="#F7E8E9" opacity="1.000000" stroke="none" 
	d="
M104.125153,6.160575 
	C105.107101,7.913278 105.854889,9.718100 106.112495,11.590364 
	C106.379639,13.532022 106.171982,15.539006 106.171982,17.636484 
	C107.861519,17.902948 109.275894,18.126017 110.690262,18.349083 
	C110.756828,18.895901 110.823395,19.442720 110.889954,19.989538 
	C108.562416,20.263309 106.234879,20.537081 102.812355,20.939648 
	C103.126862,15.585338 103.401253,10.913830 104.125153,6.160575 
z"/>
<path fill="#FFFFFF" opacity="1.000000" stroke="none" 
	d="
M118.994690,10.393561 
	C118.304329,14.170716 120.678558,18.239782 116.659760,21.347876 
	C116.659760,15.896511 116.659760,11.064266 116.659760,6.232021 
	C117.104774,6.190663 117.549797,6.149305 117.994812,6.107947 
	C118.328049,7.388312 118.661278,8.668676 118.994690,10.393561 
z"/>
<path fill="#BC001F" opacity="1.000000" stroke="none" 
	d="
M34.057175,6.337187 
	C34.278309,9.336602 34.274063,12.612064 34.052116,15.872707 
	C34.000038,16.637772 33.211899,17.352734 32.762394,18.090748 
	C32.165718,17.327379 31.115816,16.599052 31.053600,15.794361 
	C30.826956,12.862922 30.930367,9.905962 30.835602,6.504365 
	C31.382589,9.175636 32.003338,12.301166 32.602589,15.318453 
	C32.970459,12.531425 33.361397,9.569625 34.057175,6.337187 
z"/>
<path fill="#FAFBFC" opacity="1.000000" stroke="none" 
	d="
M18.962276,171.621078 
	C17.347170,172.631302 15.730592,173.295761 13.783772,173.981995 
	C13.392614,172.249908 13.331698,170.496048 13.377275,168.313599 
	C16.373320,167.296432 18.587494,167.798904 18.962276,171.621078 
z"/>
<path fill="#BF1F32" opacity="1.000000" stroke="none" 
	d="
M242.543747,88.662354 
	C241.739944,88.641769 241.257187,88.373421 240.774429,88.105072 
	C241.029373,87.772209 241.284317,87.439346 241.539261,87.106483 
	C241.981110,87.542519 242.422943,87.978546 242.543747,88.662354 
z"/>
</svg>