<?xml version="1.0" standalone="no"?>
<!DOCTYPE svg PUBLIC "-//W3C//DTD SVG 20010904//EN"
 "http://www.w3.org/TR/2001/REC-SVG-20010904/DTD/svg10.dtd">
<svg version="1.0" xmlns="http://www.w3.org/2000/svg"
 width="296.000000pt" height="296.000000pt" viewBox="0 0 296.000000 296.000000"
 preserveAspectRatio="xMidYMid meet">

<g transform="translate(0.000000,296.000000) scale(0.100000,-0.100000)"
fill="#000000" stroke="none">
<path d="M1315 2949 c-566 -60 -1061 -463 -1238 -1009 -55 -167 -71 -272 -71
-460 0 -240 43 -434 142 -642 96 -199 329 -488 380 -470 8 2 -23 42 -81 101
-243 250 -378 544 -408 889 -24 265 32 548 153 781 192 369 529 640 922 740
496 127 1001 -4 1365 -354 222 -213 368 -479 428 -782 24 -122 24 -404 0 -526
-117 -589 -560 -1038 -1145 -1159 -139 -29 -411 -31 -542 -5 -105 21 -235 61
-308 93 -43 19 -57 22 -64 12 -9 -15 28 -33 158 -79 162 -57 270 -73 479 -73
172 0 201 3 310 28 151 35 235 65 358 128 410 210 685 578 783 1048 26 120 26
420 0 540 -72 347 -246 647 -495 854 -189 158 -381 256 -606 311 -174 42 -340
53 -520 34z"/>
<path d="M1280 2895 c-159 -24 -288 -64 -432 -136 -236 -117 -423 -283 -568
-504 -237 -364 -293 -828 -149 -1245 97 -282 299 -547 542 -711 46 -30 67 -38
99 -37 25 1 43 -4 49 -13 7 -11 9 -10 9 4 0 10 5 15 10 12 6 -3 10 -21 10 -39
0 -32 3 -35 73 -64 76 -32 209 -72 312 -93 36 -8 135 -13 245 -14 158 0 200 3
289 23 289 65 520 190 721 392 204 203 335 448 397 740 25 119 25 419 0 540
-79 374 -279 682 -588 902 -283 203 -671 295 -1019 243z m595 -75 c3 -6 -8
-18 -25 -28 -17 -9 -39 -23 -48 -30 -15 -11 -13 -11 12 -6 17 4 27 3 25 -3
-29 -76 -67 -143 -80 -143 -9 0 -27 -9 -40 -20 l-24 -21 32 16 c63 30 88 9 60
-51 -10 -20 -12 -36 -7 -39 6 -3 10 -16 10 -27 0 -20 -1 -20 -18 -5 -10 9 -27
14 -38 11 -12 -3 -26 1 -33 10 -11 13 -11 16 3 16 10 0 16 8 16 21 0 14 5 19
14 16 8 -3 18 5 25 19 l11 24 -60 -30 c-32 -16 -75 -43 -93 -60 -38 -33 -47
-36 -47 -17 0 6 25 33 55 60 35 30 52 53 49 62 -4 8 -1 15 4 15 6 0 10 8 10
18 -2 30 29 90 51 97 11 3 18 12 15 19 -3 7 8 18 23 26 l28 13 -25 7 -25 7 25
10 c54 22 87 27 95 13z m-689 -61 c3 -6 1 -16 -5 -22 -16 -16 -14 -72 4 -87 8
-7 15 -19 15 -26 0 -8 5 -14 10 -14 14 0 13 -127 -1 -136 -18 -11 -27 8 -30
61 -1 28 -8 62 -16 77 -7 15 -13 51 -13 80 0 29 -4 60 -9 68 -6 8 -7 18 -5 22
6 9 39 -7 50 -23z m131 9 c-3 -13 -11 -43 -17 -67 -11 -46 -7 -62 11 -44 12
12 39 7 39 -7 0 -4 -23 -21 -51 -39 -38 -23 -55 -29 -63 -21 -8 8 -6 14 7 21
11 7 17 22 17 49 0 32 -3 37 -19 33 -37 -9 -30 15 15 56 52 46 69 51 61 19z
m-498 -145 c6 -16 16 -54 21 -87 6 -40 16 -63 30 -73 15 -11 20 -25 20 -59 0
-43 1 -44 23 -33 12 6 30 21 39 33 15 18 18 19 18 4 0 -19 -33 -58 -49 -58 -5
0 -11 -9 -14 -21 -3 -12 -10 -18 -16 -15 -5 4 -33 -10 -60 -29 -46 -34 -71
-38 -71 -14 0 5 12 14 26 19 15 6 37 19 51 30 l24 19 -35 -6 c-35 -5 -51 9
-23 20 8 4 -1 16 -23 36 -19 16 -35 34 -35 40 0 6 -4 11 -10 12 -16 1 -45 31
-45 46 0 19 17 16 52 -8 25 -18 32 -19 39 -8 20 32 6 79 -23 79 -17 0 -18 2
-8 15 10 13 10 19 -4 33 -24 27 -20 43 8 36 13 -3 27 -1 30 5 12 18 23 13 35
-16z m1401 -46 c0 -8 -11 -20 -25 -27 -14 -7 -25 -20 -25 -28 0 -11 -3 -12
-14 -3 -11 9 -15 8 -20 -5 -7 -19 9 -34 34 -33 10 0 8 3 -5 9 -17 7 -17 9 -2
9 9 1 17 5 17 11 0 5 13 7 30 4 19 -4 30 -2 30 5 0 6 -5 11 -12 11 -18 0 0 14
24 17 12 2 27 8 34 13 8 8 14 6 18 -6 9 -22 -3 -37 -25 -31 -11 3 -19 1 -19
-4 0 -5 5 -9 10 -9 14 0 12 -27 -2 -33 -8 -4 -7 -6 4 -6 9 -1 24 6 32 14 12
12 20 14 36 5 31 -17 24 -29 -25 -41 -47 -12 -52 -18 -33 -37 22 -22 -16 -24
-65 -3 -36 15 -45 17 -40 5 3 -10 -2 -14 -17 -14 -22 0 -23 -1 -5 -20 23 -26
12 -37 -20 -20 -22 12 -26 11 -46 -13 -26 -34 -43 -34 -57 -2 -18 38 -14 50 7
31 11 -10 25 -15 30 -11 18 11 12 24 -14 31 -18 4 -25 13 -25 30 l0 24 41 -20
c41 -21 77 -20 63 1 -5 9 4 11 34 6 48 -6 48 8 -1 18 -43 10 -87 33 -87 46 0
6 6 9 14 6 8 -3 18 5 25 20 7 15 17 23 26 19 8 -3 17 -1 20 5 4 5 11 7 16 4 5
-3 6 1 3 9 -3 8 2 16 13 19 10 3 19 5 21 6 1 0 2 -5 2 -12z m-166 -79 c-9 -31
-12 -34 -26 -20 -8 8 -8 15 2 27 19 22 32 18 24 -7z m-457 -69 c405 -54 728
-349 819 -745 22 -95 24 -299 5 -389 -83 -381 -362 -665 -739 -751 -103 -24
-300 -24 -400 -1 -364 86 -637 349 -728 704 -34 133 -36 316 -5 447 114 478
572 799 1048 735z m-1228 -234 c21 -42 30 -53 30 -37 1 33 18 27 43 -18 13
-22 29 -40 36 -40 15 0 16 -26 1 -35 -6 -4 -8 -14 -5 -22 10 -24 -3 -34 -27
-22 -14 7 -8 -4 18 -31 22 -23 57 -50 77 -61 47 -24 61 -44 26 -37 -21 4 -24
1 -20 -19 9 -49 -40 -20 -69 41 -8 16 -25 36 -39 45 -13 9 -21 11 -17 5 4 -7
0 -17 -8 -24 -11 -9 -18 -4 -34 31 -25 52 -14 74 21 42 49 -44 46 -31 -11 44
-54 71 -60 84 -67 142 -9 80 5 79 45 -4z m2239 22 c28 -15 52 -32 52 -37 0 -6
7 -10 15 -10 8 0 15 -7 15 -16 0 -11 -5 -14 -17 -9 -50 20 -78 17 -103 -10
l-25 -27 25 -17 c55 -36 75 -59 64 -71 -13 -13 -37 -4 -91 38 -31 23 -45 62
-23 62 5 0 7 7 3 16 -4 10 -1 15 8 13 8 -1 30 5 49 14 l35 16 -33 7 c-33 7
-58 36 -47 55 4 5 10 9 13 7 4 -2 31 -16 60 -31z m-60 -39 c-5 -15 -40 -26
-88 -27 -19 -1 -55 -12 -79 -26 -45 -26 -76 -32 -86 -15 -9 15 39 41 112 60
83 21 146 25 141 8z m-1975 -63 c26 -20 51 -45 57 -56 13 -24 4 -59 -16 -59
-8 0 -14 -10 -14 -24 0 -36 -14 -39 -60 -16 -37 19 -53 40 -30 40 7 0 7 6 0
19 -5 11 -10 45 -10 75 0 68 9 70 73 21z m1927 15 c11 -7 9 -11 -13 -19 -35
-14 -44 -14 -52 -1 -16 26 32 41 65 20z m178 -43 c1 -4 2 -14 2 -23 0 -22 -39
-14 -56 11 -12 19 -11 20 19 19 18 0 33 -4 35 -7z m-2370 -9 c-6 -16 -36 -34
-44 -26 -3 4 -4 14 -1 23 7 17 51 21 45 3z m2132 -3 c30 -17 44 -19 35 -5 -10
16 18 12 44 -6 20 -15 21 -18 8 -26 -9 -5 -14 -15 -11 -23 7 -18 4 -18 -32 -5
-23 9 -31 7 -50 -11 l-23 -22 21 -40 20 -41 16 30 c13 23 17 25 20 11 6 -27
-18 -87 -34 -87 -18 0 -78 124 -70 145 3 9 16 19 28 24 l22 8 -21 12 c-12 6
-37 13 -55 15 -18 2 -31 7 -28 12 3 5 20 8 38 6 18 -2 32 1 32 7 0 14 10 13
40 -4z m-2052 -855 c6 -30 14 -63 17 -73 6 -13 3 -16 -9 -11 -9 4 -37 -1 -61
-11 -35 -13 -45 -22 -45 -40 0 -39 21 -47 76 -28 27 9 52 20 55 25 3 6 8 1 11
-9 3 -13 -1 -18 -16 -20 -12 0 -41 -7 -65 -14 -41 -13 -44 -13 -62 10 -22 26
-25 66 -7 78 7 4 31 15 52 24 22 9 42 22 44 29 3 7 0 10 -5 7 -5 -3 -7 9 -5
29 4 29 1 34 -17 34 -23 0 -42 -31 -23 -38 15 -5 5 -22 -12 -22 -7 0 -12 10
-12 23 1 18 -4 21 -24 19 -13 -1 -27 -7 -31 -13 -4 -7 -9 -4 -13 6 -13 35 -6
40 56 41 38 1 64 7 66 14 7 21 20 -4 30 -60z m2315 -13 c27 -2 38 -29 17 -42
-5 -3 -10 -2 -10 3 0 19 -44 20 -92 2 l-49 -19 3 22 c2 15 9 21 20 19 10 -2
27 2 39 8 20 11 20 12 3 31 -9 10 -23 19 -31 19 -15 0 -15 2 -7 23 4 11 15 5
42 -25 24 -26 47 -40 65 -41z m-128 -87 c-10 -11 -16 -22 -14 -23 17 -14 103
-38 115 -33 12 5 15 2 10 -10 -3 -8 -6 -20 -6 -26 0 -7 -4 -7 -12 -1 -11 9
-104 43 -116 43 -2 0 -2 -11 0 -25 5 -25 -5 -34 -17 -15 -11 18 25 110 42 110
14 0 14 -3 -2 -20z m-2107 -133 c-1 -2 -18 -8 -35 -15 -18 -6 -47 -18 -64 -24
-27 -12 -32 -11 -44 6 -15 20 -12 36 7 36 5 0 8 -7 4 -15 -8 -21 11 -18 69 14
40 21 52 24 58 13 5 -7 7 -14 5 -15z m2099 -6 c23 -11 51 -21 62 -21 18 0 19
-3 9 -25 -9 -20 -13 -23 -20 -12 -10 18 -105 60 -118 52 -6 -4 -5 5 2 20 6 14
14 22 17 17 3 -5 25 -19 48 -31z m-2067 -50 c7 -14 8 -21 1 -17 -12 8 -111
-40 -111 -54 0 -19 -17 -10 -28 15 -9 20 -9 23 3 19 16 -6 115 46 115 60 0 12
4 7 20 -23z m2005 -9 c-23 -5 -45 -21 -45 -33 0 -15 36 -10 68 8 54 31 88 -6
57 -63 -16 -29 -20 -32 -39 -22 -21 12 -21 12 4 18 16 4 26 14 28 28 4 27 -15
29 -57 5 -24 -14 -35 -15 -48 -7 -25 15 -27 45 -6 71 14 18 21 19 38 10 20
-11 20 -11 0 -15z m-1955 -80 c0 -4 -15 -30 -34 -58 -18 -27 -36 -59 -38 -69
-4 -19 -5 -18 -17 4 -11 21 -11 25 3 33 22 12 20 31 -4 53 -15 14 -23 15 -33
6 -11 -9 -17 -8 -27 4 -11 13 -7 15 26 16 22 1 53 5 69 9 42 11 55 11 55 2z
m1898 -24 c7 -7 12 -21 12 -31 0 -18 5 -19 46 -13 40 5 45 4 34 -9 -8 -9 -30
-15 -56 -15 -40 0 -44 2 -44 24 0 29 -24 40 -41 19 -11 -12 -10 -16 1 -23 8
-5 30 -20 49 -34 19 -14 38 -23 42 -20 18 11 8 -14 -13 -32 -12 -10 -18 -14
-15 -7 9 14 -88 87 -103 78 -18 -11 -10 4 21 40 33 37 48 42 67 23z m-1832
-77 c-3 -9 -8 -36 -11 -59 l-7 -44 27 18 c15 10 30 27 34 38 8 20 8 20 21 -3
6 -13 8 -21 3 -18 -5 3 -33 -14 -61 -39 -58 -51 -61 -48 -42 46 4 25 7 46 5
48 -1 2 -19 -12 -39 -31 -29 -28 -38 -32 -47 -21 -9 11 -8 14 1 14 23 0 90 61
90 83 1 22 1 22 15 3 8 -11 13 -27 11 -35z m1750 -13 c5 -7 2 -9 -8 -5 -9 3
-24 -3 -34 -14 -17 -19 -17 -20 0 -37 16 -16 18 -16 36 5 15 20 20 21 30 8 10
-12 10 -15 -3 -15 -8 0 -20 -6 -26 -13 -8 -11 -6 -18 9 -32 17 -15 22 -16 36
-4 9 7 19 22 23 33 6 16 9 17 14 4 3 -10 -9 -30 -34 -54 -27 -26 -39 -33 -39
-22 0 9 -19 32 -42 52 -68 59 -78 28 -29 -97 6 -16 11 -30 11 -32 0 -2 -30 9
-66 25 -67 31 -104 38 -104 20 0 -14 62 -100 73 -100 5 0 4 -7 -3 -15 -17 -21
-23 -19 -37 13 -7 15 -25 41 -41 59 l-29 31 43 31 c24 17 44 27 44 23 0 -5 21
-18 46 -30 l45 -22 -7 22 c-16 52 -24 68 -35 68 -6 0 12 25 42 55 54 56 72 65
85 43z m-1521 -188 c-8 -3 -28 -24 -45 -48 -23 -32 -37 -42 -53 -40 -21 3 -38
38 -18 38 5 0 11 -8 13 -17 3 -13 12 -6 36 29 17 26 32 54 32 63 0 14 3 14 24
-2 17 -13 20 -19 11 -23z m61 -25 c14 -11 15 -14 4 -15 -15 0 -70 -77 -70 -99
0 -15 -12 -14 -36 4 -14 11 -15 14 -4 15 15 0 70 77 70 99 0 15 12 14 36 -4z
m1202 -56 c19 -33 32 -63 29 -65 -3 -3 -32 6 -66 20 -33 13 -61 23 -61 21 0
-12 44 -75 52 -75 6 0 5 -6 -2 -15 -14 -17 -35 -21 -25 -5 8 13 -46 110 -61
110 -22 0 -23 -14 -4 -63 18 -46 18 -53 5 -74 -11 -17 -25 -23 -50 -23 -33 0
-37 4 -64 60 -16 33 -28 60 -26 60 2 0 10 3 19 6 10 4 16 1 16 -9 0 -8 9 -36
20 -61 20 -49 46 -60 70 -31 11 13 10 23 -1 57 -7 22 -19 47 -27 54 -12 12 -8
17 22 29 34 14 40 14 96 -9 33 -14 60 -23 60 -21 0 12 -44 75 -52 75 -5 0 -6
5 -3 10 11 18 20 10 53 -51z m-1112 -5 c-3 -9 -6 -45 -6 -80 0 -64 -3 -71 -29
-55 -10 7 -11 13 -2 30 10 18 8 23 -13 33 -20 8 -29 8 -41 -2 -8 -7 -12 -17
-9 -22 4 -6 -4 -4 -17 2 -22 12 -22 13 -4 21 11 5 40 26 65 48 48 43 66 51 56
25z m77 -20 c8 -3 25 -33 38 -66 l23 -61 13 39 c7 21 11 44 9 50 -3 7 3 10 15
7 19 -5 27 -23 11 -23 -5 0 -17 -27 -27 -60 -10 -33 -21 -60 -25 -60 -3 0 -17
30 -30 68 l-24 67 -16 -52 c-8 -29 -20 -53 -27 -53 -14 0 -18 16 -5 22 17 6
41 102 30 115 -11 14 -8 16 15 7z m235 -66 c6 -1 12 -12 12 -25 l0 -24 -24 28
c-21 24 -26 26 -50 15 -51 -23 -46 -114 7 -120 27 -3 34 10 28 56 -2 14 5 14
34 2 11 -5 15 -9 8 -9 -6 -1 -14 -14 -18 -30 -7 -33 -22 -42 -57 -34 -66 16
-88 84 -42 130 20 20 31 24 57 19 18 -4 38 -7 45 -8z m92 -27 c0 -11 5 -23 10
-26 14 -9 42 15 36 30 -3 8 4 10 19 7 l24 -4 -30 -25 c-36 -30 -36 -40 -3 -88
19 -28 21 -36 9 -31 -9 3 -23 6 -31 6 -9 0 -12 4 -9 10 3 5 1 19 -5 31 -11 20
-12 20 -31 3 -11 -10 -17 -24 -14 -32 4 -10 0 -12 -11 -8 -8 3 -20 6 -25 6 -5
0 8 15 28 34 l37 34 -27 36 -28 36 25 0 c19 0 26 -5 26 -19z m138 -48 c2 -39
8 -71 15 -75 7 -5 0 -8 -18 -8 l-30 0 0 75 c0 61 3 75 15 75 13 0 16 -14 18
-67z m127 20 c15 -27 35 -56 43 -65 8 -10 10 -18 4 -18 -6 0 -18 -3 -28 -7
-11 -4 -15 -3 -11 4 11 17 -3 43 -23 43 -25 0 -51 -27 -44 -45 4 -10 0 -15
-11 -15 -12 0 -15 5 -10 18 3 9 13 43 22 75 9 31 20 57 24 57 4 0 19 -21 34
-47z"/>
<path d="M1777 2719 c-9 -6 -15 -14 -12 -19 3 -5 0 -12 -6 -16 -6 -3 -15 0
-20 7 -7 11 -9 11 -9 -2 0 -9 7 -20 16 -23 8 -3 13 -10 9 -15 -3 -6 -12 -8
-20 -4 -8 3 -15 0 -15 -6 0 -6 8 -11 18 -11 12 0 26 17 40 46 25 51 25 57 -1
43z"/>
<path d="M1192 2580 c0 -14 2 -19 5 -12 2 6 2 18 0 25 -3 6 -5 1 -5 -13z"/>
<path d="M801 2604 c0 -11 3 -14 6 -6 3 7 2 16 -1 19 -3 4 -6 -2 -5 -13z"/>
<path d="M797 2447 c-3 -7 13 -33 35 -57 21 -25 35 -36 29 -25 -5 11 -17 37
-26 58 -16 38 -29 46 -38 24z"/>
<path d="M2228 2489 c-19 -11 -25 -39 -8 -39 6 0 10 4 10 9 0 5 7 17 16 25 17
18 8 21 -18 5z"/>
<path d="M1370 2413 c-71 -8 -207 -46 -277 -78 -232 -107 -420 -314 -501 -550
-35 -105 -46 -177 -46 -305 -1 -253 83 -465 253 -643 174 -182 379 -278 627
-294 455 -28 858 272 971 723 26 105 23 343 -6 449 -71 264 -254 488 -496 606
-163 80 -344 112 -525 92z m363 -47 c337 -100 579 -363 652 -709 19 -89 19
-266 0 -359 -76 -366 -357 -645 -728 -723 -87 -19 -254 -19 -349 -1 -367 71
-653 355 -730 726 -25 121 -20 295 11 415 77 293 317 547 604 640 119 38 167
44 317 40 109 -2 152 -8 223 -29z"/>
<path d="M936 2081 c50 -36 93 -86 112 -131 25 -59 41 -179 42 -302 l0 -118
-35 0 c-35 0 -35 0 -35 -45 0 -45 0 -45 35 -45 l35 0 0 -91 c0 -228 -48 -342
-172 -405 -41 -21 -48 -29 -48 -54 0 -30 1 -30 53 -30 125 0 235 118 253 273
l7 57 143 0 144 0 0 85 c0 101 -5 106 -117 113 l-72 5 -4 121 -3 121 -2 -132
-2 -133 73 0 c88 0 99 -7 95 -51 l-3 -34 -95 0 c-131 0 -150 12 -150 95 0 60
0 60 30 60 25 0 30 4 30 23 0 14 -11 32 -28 44 l-29 21 -6 159 c-7 194 -26
267 -88 337 -50 57 -104 86 -160 86 l-42 0 39 -29z"/>
<path d="M1929 2082 c-59 -38 -93 -80 -120 -149 -20 -50 -23 -81 -27 -230 l-4
-172 -34 -23 c-22 -15 -34 -31 -34 -45 0 -20 5 -23 35 -23 35 0 35 0 35 -45 0
-95 -36 -118 -178 -113 l-77 3 -3 34 c-4 45 7 51 98 51 l75 0 0 130 c0 72 -3
130 -7 130 -5 0 -8 -53 -8 -119 l0 -118 -73 -5 c-112 -7 -117 -12 -117 -113
l0 -85 144 0 143 0 11 -66 c26 -158 129 -264 257 -264 54 0 55 1 55 28 0 23
-8 32 -44 49 -115 56 -163 136 -175 294 -4 57 -5 128 -3 157 4 50 5 52 33 52
28 0 29 2 29 45 0 43 -1 45 -29 45 -28 0 -29 2 -35 63 -7 65 7 259 24 315 20
72 78 146 146 189 16 10 13 12 -27 12 -33 1 -57 -6 -90 -27z"/>
<path d="M1401 1944 c1 -30 4 -38 6 -21 3 19 9 27 18 23 7 -2 16 2 19 10 4 10
2 12 -6 8 -6 -4 -17 1 -25 11 -11 17 -13 13 -12 -31z"/>
<path d="M1690 1980 c0 -5 5 -10 10 -10 6 0 10 -4 10 -10 0 -5 -7 -10 -15 -10
-18 0 -20 -16 -2 -23 10 -4 10 -6 0 -6 -7 -1 -13 -5 -13 -11 0 -5 6 -7 14 -4
17 6 28 46 20 68 -7 18 -24 22 -24 6z"/>
<path d="M1557 1939 c4 -13 8 -18 11 -10 2 7 -1 18 -6 23 -8 8 -9 4 -5 -13z"/>
<path d="M1287 1853 c-12 -12 -7 -50 6 -50 8 0 14 6 14 13 0 7 -5 11 -10 7 -5
-3 -6 3 -2 16 6 21 4 26 -8 14z"/>
<path d="M1421 1828 c-8 -21 -8 -35 -1 -42 7 -7 10 -5 11 5 0 7 2 26 4 42 5
36 -1 34 -14 -5z"/>
<path d="M1650 1844 c0 -8 5 -12 10 -9 6 4 8 11 5 16 -9 14 -15 11 -15 -7z"/>
<path d="M1683 1854 c4 -4 1 -14 -5 -22 -10 -12 -9 -14 6 -11 26 5 31 25 9 33
-9 4 -14 4 -10 0z"/>
<path d="M1535 1819 c-11 -16 -1 -19 13 -3 7 8 8 14 3 14 -5 0 -13 -5 -16 -11z"/>
<path d="M1562 1780 c0 -14 2 -19 5 -12 2 6 2 18 0 25 -3 6 -5 1 -5 -13z"/>
<path d="M1290 1525 l0 -125 60 0 c33 0 76 -7 95 -14 31 -13 39 -13 70 0 19 7
62 14 95 14 l60 0 0 125 0 125 -48 0 c-27 0 -69 -7 -94 -16 -42 -14 -51 -14
-93 0 -25 9 -68 16 -95 16 l-50 0 0 -125z"/>
<path d="M1437 1132 c-19 -20 -23 -67 -7 -77 6 -3 10 -48 10 -101 l0 -94 40 0
40 0 0 94 c0 53 4 98 10 101 17 10 11 61 -8 78 -24 22 -65 21 -85 -1z"/>
<path d="M510 2110 c0 -11 6 -20 14 -20 7 0 19 -7 26 -15 7 -8 20 -15 28 -15
11 0 5 11 -18 35 -39 40 -50 43 -50 15z"/>
<path d="M590 2035 c0 -8 7 -15 15 -15 9 0 12 6 9 15 -4 8 -10 15 -15 15 -5 0
-9 -7 -9 -15z"/>
<path d="M483 822 c-8 -5 -9 -12 -2 -22 8 -13 10 -13 19 0 18 27 9 39 -17 22z"/>
<path d="M945 416 c-19 -14 -19 -15 -2 -22 22 -8 30 -1 25 21 -3 14 -5 14 -23
1z"/>
<path d="M1627 313 c-12 -12 -7 -33 8 -33 17 0 19 9 7 28 -5 7 -11 9 -15 5z"/>
<path d="M559 342 c9 -31 82 -85 109 -80 18 2 9 13 -47 54 -62 46 -68 48 -62
26z"/>
<path d="M685 240 c3 -5 11 -10 17 -10 6 0 17 -8 24 -17 12 -17 13 -17 14 3 0
21 -17 34 -46 34 -9 0 -12 -4 -9 -10z"/>
<path d="M800 230 c13 -11 25 -18 28 -16 7 7 -25 36 -39 36 -7 0 -2 -9 11 -20z"/>
<path d="M771 194 c0 -11 3 -14 6 -6 3 7 2 16 -1 19 -3 4 -6 -2 -5 -13z"/>
<path d="M790 190 c0 -5 10 -10 23 -10 18 0 19 2 7 10 -19 13 -30 13 -30 0z"/>
<path d="M815 160 c3 -5 8 -10 11 -10 2 0 4 5 4 10 0 6 -5 10 -11 10 -5 0 -7
-4 -4 -10z"/>
</g>
</svg>
