<svg version="1.1" id="Layer_1" xmlns="http://www.w3.org/2000/svg" xmlns:xlink="http://www.w3.org/1999/xlink" x="0px" y="0px"
	 width="100%" viewBox="0 0 640 640" enable-background="new 0 0 640 640" xml:space="preserve">
<path fill="#2C2827" opacity="1.000000" stroke="none" 
	d="
M640.000000,641.000000 
	C427.046600,641.000000 214.093185,641.000000 1.069890,641.000000 
	C1.069890,427.759949 1.069890,214.519867 1.069890,1.000000 
	C213.693436,1.000000 426.386993,1.000000 639.506348,1.277955 
	C639.906555,1.740815 639.880920,1.925721 639.400330,2.069658 
	C636.112488,2.018522 633.279663,1.999476 630.446777,1.999453 
	C423.456451,1.997817 216.466110,1.994743 9.475788,2.008055 
	C1.070950,2.008596 2.006535,1.063970 2.006006,9.470905 
	C1.992909,217.294525 1.997532,425.118164 1.998935,632.941772 
	C1.998982,639.999512 1.998635,640.001587 8.890409,640.001587 
	C217.380676,640.002136 425.870941,640.002502 634.361206,639.997742 
	C636.193115,639.997742 638.024963,639.927673 639.894287,640.167542 
	C639.954407,640.629822 639.977234,640.814880 640.000000,641.000000 
z"/>
<path fill="#504C4B" opacity="1.000000" stroke="none" 
	d="
M639.855286,2.110626 
	C639.880920,1.925721 639.906555,1.740815 639.966064,1.277957 
	C640.333313,1.166671 640.943787,1.315927 640.955566,1.502798 
	C641.039001,2.830884 641.000000,4.166667 641.000000,5.500000 
	C641.000000,217.333328 641.000000,429.166656 640.500000,641.000000 
	C639.977234,640.814880 639.954407,640.629822 639.949341,639.711121 
	C639.978394,638.144409 639.999634,637.311401 639.999634,636.478333 
	C640.000793,426.519897 640.000671,216.561462 639.994019,6.603035 
	C639.994019,5.105564 639.903564,3.608095 639.855286,2.110626 
z"/>
<path fill="#080403" opacity="1.000000" stroke="none" 
	d="
M639.400330,2.069657 
	C639.903564,3.608095 639.994019,5.105564 639.994019,6.603035 
	C640.000671,216.561462 640.000793,426.519897 639.999634,636.478333 
	C639.999634,637.311401 639.978394,638.144409 639.911987,639.433899 
	C638.024963,639.927673 636.193115,639.997742 634.361206,639.997742 
	C425.870941,640.002502 217.380676,640.002136 8.890409,640.001587 
	C1.998635,640.001587 1.998982,639.999512 1.998935,632.941772 
	C1.997532,425.118164 1.992909,217.294525 2.006006,9.470905 
	C2.006535,1.063970 1.070950,2.008596 9.475788,2.008055 
	C216.466110,1.994743 423.456451,1.997817 630.446777,1.999453 
	C633.279663,1.999476 636.112488,2.018522 639.400330,2.069657 
M309.934937,151.468704 
	C288.700073,153.202148 268.798767,159.151062 250.115906,170.067337 
	C266.724457,198.827927 283.145142,227.263214 299.648987,255.842453 
	C314.080902,248.239883 328.210266,248.479141 342.298401,255.819061 
	C358.917725,227.027893 375.275787,198.689392 391.828857,170.013000 
	C366.397552,155.538910 339.550110,149.512787 309.934937,151.468704 
M211.651871,382.830658 
	C222.536026,395.775604 235.100662,406.710266 250.186005,415.372070 
	C266.783264,386.619141 283.214874,358.153168 299.701080,329.592590 
	C298.532684,328.783264 297.845703,328.333313 297.185852,327.846497 
	C286.659454,320.080505 279.740479,310.149353 279.026306,296.721130 
	C278.826080,292.956024 276.911255,292.705994 273.848572,292.715332 
	C244.032913,292.806366 214.216843,292.759766 184.400879,292.768585 
	C182.788330,292.769073 181.175812,292.913422 179.308945,293.003021 
	C179.727341,326.688538 190.337952,356.307892 211.651871,382.830658 
M426.500153,292.760254 
	C405.563446,292.760254 384.626770,292.760254 363.367523,292.760254 
	C362.942596,309.053741 355.550476,320.951904 342.203857,329.582886 
	C358.692139,358.136566 375.139648,386.619568 391.567596,415.068726 
	C431.839630,395.955872 468.919983,331.364410 461.853973,292.760254 
	C450.443268,292.760254 438.971710,292.760254 426.500153,292.760254 
M329.105591,319.914001 
	C330.037506,319.570557 330.985931,319.265900 331.898895,318.877899 
	C346.303406,312.756531 353.111572,296.350311 347.208984,282.006927 
	C341.283234,267.607330 325.159302,260.618317 310.671082,266.169342 
	C297.257050,271.308807 289.629486,286.623199 293.661316,300.321075 
	C298.132019,315.510040 312.254364,323.565521 329.105591,319.914001 
M442.312347,488.114471 
	C444.840302,489.022888 447.368256,489.931335 450.809631,491.168030 
	C450.809631,480.124847 450.809631,470.632965 450.809631,461.141113 
	C456.295197,469.667358 460.752930,478.441498 465.395050,487.116943 
	C466.062531,488.364319 467.530182,489.833832 468.780518,489.992126 
	C471.997589,490.399414 475.300598,490.128296 478.571045,490.128296 
	C478.571045,476.124908 478.571045,462.727386 478.571045,449.371094 
	C475.847168,449.371094 473.448456,449.371094 470.474518,449.371094 
	C470.474518,459.255890 470.474518,468.857178 470.474518,478.458435 
	C465.063324,469.784698 460.592651,460.960297 455.967590,452.217590 
	C455.307190,450.969269 453.989349,449.363007 452.820190,449.223145 
	C449.445404,448.819489 445.991089,449.080536 442.304108,449.080536 
	C442.304108,462.246582 442.304108,474.711731 442.312347,488.114471 
M193.104095,476.597076 
	C191.806656,474.441681 190.509216,472.286285 189.129501,469.994171 
	C189.458801,469.754700 190.128387,469.281708 190.783325,468.789215 
	C194.861420,465.722656 195.865387,461.473755 194.867294,456.803802 
	C193.875656,452.164185 190.301270,449.659332 185.923492,449.415253 
	C178.380341,448.994659 170.796799,449.298828 163.361603,449.298828 
	C163.361603,463.188782 163.361603,476.584747 163.361603,489.852844 
	C166.287979,489.852844 168.885666,489.852844 171.997040,489.852844 
	C171.997040,484.703461 171.997040,479.813629 171.997040,474.966125 
	C184.058472,474.413269 184.063660,474.412140 186.488052,485.600403 
	C186.794205,487.013306 187.011642,488.445435 187.263565,489.832275 
	C190.045547,489.832275 192.617310,489.832275 195.585999,489.832275 
	C194.799393,485.441376 194.075882,481.402740 193.104095,476.597076 
M401.207764,453.712708 
	C397.020416,457.785889 395.454010,463.085999 395.320160,468.581879 
	C394.988708,482.192841 402.562073,491.919281 416.961029,490.918121 
	C427.375763,490.193939 433.668365,482.998871 434.366119,470.894135 
	C434.852386,462.457916 432.491364,454.795410 424.432281,450.710907 
	C416.591980,446.737305 408.753815,447.443085 401.207764,453.712708 
M244.725723,455.729858 
	C244.725723,467.120514 244.725723,478.511169 244.725723,490.128510 
	C250.013138,490.128510 254.657288,490.164398 259.300690,490.121368 
	C270.679779,490.015961 276.879303,485.480957 278.613220,474.272919 
	C280.458221,462.346771 277.004974,450.507965 261.067291,449.190704 
	C255.797806,448.755188 250.462021,449.122040 244.726852,449.122040 
	C244.726852,451.173340 244.726852,452.981537 244.725723,455.729858 
M203.857574,478.212708 
	C202.613174,482.060455 201.368790,485.908234 200.060730,489.952881 
	C203.273285,489.952881 206.059128,489.952881 209.020432,489.952881 
	C212.257370,479.547394 215.462494,469.244171 218.667618,458.940979 
	C219.005997,458.966278 219.344391,458.991547 219.682770,459.016846 
	C222.952835,469.406158 226.222900,479.795471 229.424988,489.968811 
	C232.848953,489.968811 235.658051,489.968811 238.807281,489.968811 
	C235.195206,479.429382 231.654663,469.133453 228.138443,458.829193 
	C224.600098,448.460144 224.610718,448.456512 213.435120,449.361084 
	C210.303299,458.702606 207.163330,468.068451 203.857574,478.212708 
M303.859131,483.337860 
	C303.157959,485.448822 302.456818,487.559753 301.669342,489.930542 
	C305.114624,489.930542 307.900665,489.930542 310.662628,489.930542 
	C313.889679,479.518524 317.061279,469.285339 320.232880,459.052155 
	C323.873779,467.150452 326.378052,475.139709 328.850433,483.138794 
	C331.242554,490.878296 331.228149,490.882751 340.229004,489.646088 
	C336.754730,479.283417 333.347504,468.959595 329.829498,458.673615 
	C326.391663,448.622009 326.342041,448.638977 315.088837,449.286621 
	C311.400696,460.302368 307.680328,471.414368 303.859131,483.337860 
M349.539215,449.087830 
	C346.251617,449.087830 342.964050,449.087830 339.534210,449.087830 
	C339.534210,451.976807 339.534210,454.361084 339.534210,457.100769 
	C343.430481,457.100769 347.033661,457.100769 351.035156,457.100769 
	C351.035156,468.197174 351.035156,478.942719 351.035156,489.823364 
	C354.162872,489.823364 356.870056,489.823364 360.019196,489.823364 
	C360.019196,478.794159 360.019196,468.058319 360.019196,456.852478 
	C364.011230,456.852478 367.567413,456.852478 370.903564,456.852478 
	C370.903564,453.974884 370.903564,451.595917 370.903564,449.087982 
	C363.844147,449.087982 357.186676,449.087982 349.539215,449.087830 
M286.903351,463.505157 
	C286.903351,472.274445 286.903351,481.043762 286.903351,489.762024 
	C290.097382,489.762024 292.794220,489.762024 295.399048,489.762024 
	C295.399048,476.016235 295.399048,462.650299 295.399048,449.355347 
	C292.413696,449.355347 289.822021,449.355347 286.903900,449.355347 
	C286.903900,453.913513 286.903900,458.211090 286.903351,463.505157 
M387.077118,453.646851 
	C386.996857,452.209412 386.916595,450.771973 386.843109,449.456177 
	C383.781921,449.456177 381.082306,449.456177 378.147125,449.456177 
	C378.147125,456.436218 378.147125,463.053101 378.147125,469.669983 
	C378.147125,476.412506 378.147125,483.155029 378.147125,489.955078 
	C381.386597,489.955078 383.991760,489.955078 387.076904,489.955078 
	C387.076904,478.069794 387.076904,466.344666 387.077118,453.646851 
z"/>
<path fill="#FEFDFD" opacity="1.000000" stroke="none" 
	d="
M310.399048,151.418762 
	C339.550110,149.512787 366.397552,155.538910 391.828857,170.013000 
	C375.275787,198.689392 358.917725,227.027893 342.298401,255.819061 
	C328.210266,248.479141 314.080902,248.239883 299.648987,255.842453 
	C283.145142,227.263214 266.724457,198.827927 250.115906,170.067337 
	C268.798767,159.151062 288.700073,153.202148 310.399048,151.418762 
z"/>
<path fill="#FEFEFE" opacity="1.000000" stroke="none" 
	d="
M211.420334,382.559631 
	C190.337952,356.307892 179.727341,326.688538 179.308945,293.003021 
	C181.175812,292.913422 182.788330,292.769073 184.400879,292.768585 
	C214.216843,292.759766 244.032913,292.806366 273.848572,292.715332 
	C276.911255,292.705994 278.826080,292.956024 279.026306,296.721130 
	C279.740479,310.149353 286.659454,320.080505 297.185852,327.846497 
	C297.845703,328.333313 298.532684,328.783264 299.701080,329.592590 
	C283.214874,358.153168 266.783264,386.619141 250.186005,415.372070 
	C235.100662,406.710266 222.536026,395.775604 211.420334,382.559631 
z"/>
<path fill="#FEFEFE" opacity="1.000000" stroke="none" 
	d="
M427.000183,292.760254 
	C438.971710,292.760254 450.443268,292.760254 461.853973,292.760254 
	C468.919983,331.364410 431.839630,395.955872 391.567596,415.068726 
	C375.139648,386.619568 358.692139,358.136566 342.203857,329.582886 
	C355.550476,320.951904 362.942596,309.053741 363.367523,292.760254 
	C384.626770,292.760254 405.563446,292.760254 427.000183,292.760254 
z"/>
<path fill="#FCFCFC" opacity="1.000000" stroke="none" 
	d="
M328.699921,319.994934 
	C312.254364,323.565521 298.132019,315.510040 293.661316,300.321075 
	C289.629486,286.623199 297.257050,271.308807 310.671082,266.169342 
	C325.159302,260.618317 341.283234,267.607330 347.208984,282.006927 
	C353.111572,296.350311 346.303406,312.756531 331.898895,318.877899 
	C330.985931,319.265900 330.037506,319.570557 328.699921,319.994934 
z"/>
<path fill="#F1F1F0" opacity="1.000000" stroke="none" 
	d="
M442.308228,487.645691 
	C442.304108,474.711731 442.304108,462.246582 442.304108,449.080536 
	C445.991089,449.080536 449.445404,448.819489 452.820190,449.223145 
	C453.989349,449.363007 455.307190,450.969269 455.967590,452.217590 
	C460.592651,460.960297 465.063324,469.784698 470.474518,478.458435 
	C470.474518,468.857178 470.474518,459.255890 470.474518,449.371094 
	C473.448456,449.371094 475.847168,449.371094 478.571045,449.371094 
	C478.571045,462.727386 478.571045,476.124908 478.571045,490.128296 
	C475.300598,490.128296 471.997589,490.399414 468.780518,489.992126 
	C467.530182,489.833832 466.062531,488.364319 465.395050,487.116943 
	C460.752930,478.441498 456.295197,469.667358 450.809631,461.141113 
	C450.809631,470.632965 450.809631,480.124847 450.809631,491.168030 
	C447.368256,489.931335 444.840302,489.022888 442.308228,487.645691 
z"/>
<path fill="#F5F5F4" opacity="1.000000" stroke="none" 
	d="
M193.228241,476.980591 
	C194.075882,481.402740 194.799393,485.441376 195.585999,489.832275 
	C192.617310,489.832275 190.045547,489.832275 187.263565,489.832275 
	C187.011642,488.445435 186.794205,487.013306 186.488052,485.600403 
	C184.063660,474.412140 184.058472,474.413269 171.997040,474.966125 
	C171.997040,479.813629 171.997040,484.703461 171.997040,489.852844 
	C168.885666,489.852844 166.287979,489.852844 163.361603,489.852844 
	C163.361603,476.584747 163.361603,463.188782 163.361603,449.298828 
	C170.796799,449.298828 178.380341,448.994659 185.923492,449.415253 
	C190.301270,449.659332 193.875656,452.164185 194.867294,456.803802 
	C195.865387,461.473755 194.861420,465.722656 190.783325,468.789215 
	C190.128387,469.281708 189.458801,469.754700 189.129501,469.994171 
	C190.509216,472.286285 191.806656,474.441681 193.228241,476.980591 
M185.980713,460.617584 
	C182.900696,453.571198 176.917572,457.896515 171.858109,456.356415 
	C171.858109,458.731934 171.830200,460.360016 171.866043,461.986694 
	C171.901138,463.578857 172.001190,465.169586 172.082809,466.985443 
	C174.924988,466.985443 177.394272,466.996063 179.863403,466.982971 
	C183.549393,466.963440 185.883087,465.437622 185.980713,460.617584 
z"/>
<path fill="#F5F5F4" opacity="1.000000" stroke="none" 
	d="
M401.468140,453.460999 
	C408.753815,447.443085 416.591980,446.737305 424.432281,450.710907 
	C432.491364,454.795410 434.852386,462.457916 434.366119,470.894135 
	C433.668365,482.998871 427.375763,490.193939 416.961029,490.918121 
	C402.562073,491.919281 394.988708,482.192841 395.320160,468.581879 
	C395.454010,463.085999 397.020416,457.785889 401.468140,453.460999 
M425.255676,466.837738 
	C424.118469,460.288910 421.395752,456.784088 416.604095,456.178497 
	C411.870911,455.580292 408.033875,457.229340 405.971710,461.717926 
	C403.569702,466.946228 403.511566,472.318665 405.915955,477.592010 
	C407.672699,481.444946 410.765320,483.258362 415.019409,483.239319 
	C419.285278,483.220215 422.594666,481.402222 423.919281,477.427063 
	C424.937408,474.371552 424.925751,470.972900 425.255676,466.837738 
z"/>
<path fill="#F9F9F9" opacity="1.000000" stroke="none" 
	d="
M244.726288,455.259796 
	C244.726852,452.981537 244.726852,451.173340 244.726852,449.122040 
	C250.462021,449.122040 255.797806,448.755188 261.067291,449.190704 
	C277.004974,450.507965 280.458221,462.346771 278.613220,474.272919 
	C276.879303,485.480957 270.679779,490.015961 259.300690,490.121368 
	C254.657288,490.164398 250.013138,490.128510 244.725723,490.128510 
	C244.725723,478.511169 244.725723,467.120514 244.726288,455.259796 
M269.114655,463.712524 
	C266.248352,457.223969 262.971649,455.925598 253.560394,457.560242 
	C253.560394,465.749451 253.560394,473.938293 253.560394,482.076935 
	C266.416382,483.572845 270.795166,479.405304 269.842346,466.928253 
	C269.779724,466.108368 269.546539,465.301514 269.114655,463.712524 
z"/>
<path fill="#F6F6F5" opacity="1.000000" stroke="none" 
	d="
M203.940460,477.823517 
	C207.163330,468.068451 210.303299,458.702606 213.435120,449.361084 
	C224.610718,448.456512 224.600098,448.460144 228.138443,458.829193 
	C231.654663,469.133453 235.195206,479.429382 238.807281,489.968811 
	C235.658051,489.968811 232.848953,489.968811 229.424988,489.968811 
	C226.222900,479.795471 222.952835,469.406158 219.682770,459.016846 
	C219.344391,458.991547 219.005997,458.966278 218.667618,458.940979 
	C215.462494,469.244171 212.257370,479.547394 209.020432,489.952881 
	C206.059128,489.952881 203.273285,489.952881 200.060730,489.952881 
	C201.368790,485.908234 202.613174,482.060455 203.940460,477.823517 
z"/>
<path fill="#F6F6F5" opacity="1.000000" stroke="none" 
	d="
M303.909546,482.932129 
	C307.680328,471.414368 311.400696,460.302368 315.088837,449.286621 
	C326.342041,448.638977 326.391663,448.622009 329.829498,458.673615 
	C333.347504,468.959595 336.754730,479.283417 340.229004,489.646088 
	C331.228149,490.882751 331.242554,490.878296 328.850433,483.138794 
	C326.378052,475.139709 323.873779,467.150452 320.232880,459.052155 
	C317.061279,469.285339 313.889679,479.518524 310.662628,489.930542 
	C307.900665,489.930542 305.114624,489.930542 301.669342,489.930542 
	C302.456818,487.559753 303.157959,485.448822 303.909546,482.932129 
z"/>
<path fill="#F6F6F5" opacity="1.000000" stroke="none" 
	d="
M350.034180,449.087891 
	C357.186676,449.087982 363.844147,449.087982 370.903564,449.087982 
	C370.903564,451.595917 370.903564,453.974884 370.903564,456.852478 
	C367.567413,456.852478 364.011230,456.852478 360.019196,456.852478 
	C360.019196,468.058319 360.019196,478.794159 360.019196,489.823364 
	C356.870056,489.823364 354.162872,489.823364 351.035156,489.823364 
	C351.035156,478.942719 351.035156,468.197174 351.035156,457.100769 
	C347.033661,457.100769 343.430481,457.100769 339.534210,457.100769 
	C339.534210,454.361084 339.534210,451.976807 339.534210,449.087830 
	C342.964050,449.087830 346.251617,449.087830 350.034180,449.087891 
z"/>
<path fill="#F5F5F4" opacity="1.000000" stroke="none" 
	d="
M286.903625,463.006897 
	C286.903900,458.211090 286.903900,453.913513 286.903900,449.355347 
	C289.822021,449.355347 292.413696,449.355347 295.399048,449.355347 
	C295.399048,462.650299 295.399048,476.016235 295.399048,489.762024 
	C292.794220,489.762024 290.097382,489.762024 286.903351,489.762024 
	C286.903351,481.043762 286.903351,472.274445 286.903625,463.006897 
z"/>
<path fill="#F6F6F5" opacity="1.000000" stroke="none" 
	d="
M387.077026,454.133209 
	C387.076904,466.344666 387.076904,478.069794 387.076904,489.955078 
	C383.991760,489.955078 381.386597,489.955078 378.147125,489.955078 
	C378.147125,483.155029 378.147125,476.412506 378.147125,469.669983 
	C378.147125,463.053101 378.147125,456.436218 378.147125,449.456177 
	C381.082306,449.456177 383.781921,449.456177 386.843109,449.456177 
	C386.916595,450.771973 386.996857,452.209412 387.077026,454.133209 
z"/>
<path fill="#0C0908" opacity="1.000000" stroke="none" 
	d="
M185.974884,461.030212 
	C185.883087,465.437622 183.549393,466.963440 179.863403,466.982971 
	C177.394272,466.996063 174.924988,466.985443 172.082809,466.985443 
	C172.001190,465.169586 171.901138,463.578857 171.866043,461.986694 
	C171.830200,460.360016 171.858109,458.731934 171.858109,456.356415 
	C176.917572,457.896515 182.900696,453.571198 185.974884,461.030212 
z"/>
<path fill="#0C0908" opacity="1.000000" stroke="none" 
	d="
M425.313873,467.282288 
	C424.925751,470.972900 424.937408,474.371552 423.919281,477.427063 
	C422.594666,481.402222 419.285278,483.220215 415.019409,483.239319 
	C410.765320,483.258362 407.672699,481.444946 405.915955,477.592010 
	C403.511566,472.318665 403.569702,466.946228 405.971710,461.717926 
	C408.033875,457.229340 411.870911,455.580292 416.604095,456.178497 
	C421.395752,456.784088 424.118469,460.288910 425.313873,467.282288 
z"/>
<path fill="#0C0908" opacity="1.000000" stroke="none" 
	d="
M269.253662,464.100586 
	C269.546539,465.301514 269.779724,466.108368 269.842346,466.928253 
	C270.795166,479.405304 266.416382,483.572845 253.560394,482.076935 
	C253.560394,473.938293 253.560394,465.749451 253.560394,457.560242 
	C262.971649,455.925598 266.248352,457.223969 269.253662,464.100586 
z"/>
</svg>