<?xml version="1.0" standalone="no"?>
<!DOCTYPE svg PUBLIC "-//W3C//DTD SVG 20010904//EN"
 "http://www.w3.org/TR/2001/REC-SVG-20010904/DTD/svg10.dtd">
<svg version="1.0" xmlns="http://www.w3.org/2000/svg"
 width="225.000000pt" height="225.000000pt" viewBox="0 0 225.000000 225.000000"
 preserveAspectRatio="xMidYMid meet">

<g transform="translate(0.000000,225.000000) scale(0.100000,-0.100000)"
fill="#000000" stroke="none">
<path d="M923 1793 c-22 -4 -23 -8 -23 -128 0 -234 47 -380 160 -492 l62 -63
39 31 c74 58 132 151 163 259 23 81 38 235 30 316 -6 70 -7 72 -36 78 -34 7
-360 6 -395 -1z m73 -85 c-9 -12 -16 -26 -16 -30 0 -9 33 2 41 15 4 5 25 13
48 17 52 9 55 -8 9 -53 -18 -18 -31 -35 -30 -39 1 -5 -8 -8 -19 -8 -16 0 -20
-5 -16 -20 4 -15 0 -20 -16 -20 -18 0 -19 2 -7 10 12 7 11 13 -9 34 -19 20
-22 31 -17 60 6 32 4 36 -14 36 -11 0 -20 5 -20 10 0 6 18 10 41 10 39 0 40 0
25 -22z m224 13 c0 -6 -4 -13 -10 -16 -5 -3 -10 -10 -10 -16 0 -13 38 -11 42
2 4 11 88 31 88 20 0 -3 -9 -21 -20 -39 -14 -23 -26 -32 -37 -28 -12 5 -14 1
-9 -18 5 -21 3 -23 -16 -18 -18 4 -20 2 -16 -16 5 -18 2 -22 -15 -22 -15 0
-18 3 -10 8 10 6 7 16 -11 41 -20 27 -23 38 -15 58 12 33 12 33 -11 33 -11 0
-20 5 -20 10 0 6 16 10 35 10 19 0 35 -4 35 -9z m-260 -25 c0 -3 -4 -8 -10
-11 -5 -3 -10 -1 -10 4 0 6 5 11 10 11 6 0 10 -2 10 -4z m210 -6 c0 -5 -4 -10
-10 -10 -5 0 -10 5 -10 10 0 6 5 10 10 10 6 0 10 -4 10 -10z m-64 -150 c6 -6
21 -6 42 2 40 15 60 5 84 -43 27 -53 24 -60 -22 -53 -29 5 -47 2 -65 -10 -23
-15 -27 -15 -50 0 -18 12 -36 15 -66 10 -39 -6 -40 -5 -33 16 11 39 33 76 46
81 22 9 54 7 64 -3z m14 -158 c0 -2 -10 -16 -22 -32 -12 -16 -19 -33 -15 -37
4 -3 7 -1 7 5 0 6 7 9 16 5 10 -3 22 0 28 8 10 13 106 42 114 34 10 -9 -42
-87 -64 -95 -20 -8 -23 -13 -15 -28 9 -16 6 -18 -20 -14 -31 5 -40 -13 -17
-36 9 -9 4 -12 -22 -12 -32 0 -33 1 -14 14 18 14 18 15 -10 45 -29 30 -32 56
-11 104 6 14 2 17 -24 17 -38 0 -41 17 -3 22 34 4 72 4 72 0z m-70 -41 c0 -6
-4 -13 -10 -16 -5 -3 -10 1 -10 9 0 9 5 16 10 16 6 0 10 -4 10 -9z"/>
<path d="M112 943 c-3 -72 28 -100 79 -73 16 9 19 21 17 68 l-1 57 -6 -54 c-7
-60 -28 -84 -58 -65 -12 7 -20 29 -24 65 l-6 54 -1 -52z"/>
<path d="M302 928 l1 -63 6 55 6 55 37 -53 c21 -28 42 -52 46 -52 5 0 9 28 9
63 l0 62 -6 -55 -6 -55 -40 53 c-21 28 -43 52 -47 52 -4 0 -7 -28 -6 -62z"/>
<path d="M503 930 c0 -36 2 -50 4 -32 2 17 2 47 0 65 -2 17 -4 3 -4 -33z"/>
<path d="M590 984 c0 -20 51 -127 58 -120 9 10 42 99 38 104 -2 2 -12 -17 -21
-43 -10 -25 -20 -43 -24 -40 -3 3 -15 29 -28 58 -12 29 -22 47 -23 41z"/>
<path d="M782 928 l3 -63 38 -1 c37 -1 37 -1 2 3 l-34 4 0 54 1 54 37 4 c35 4
35 4 -7 5 l-43 2 3 -62z"/>
<path d="M950 923 c0 -36 3 -64 6 -61 3 4 5 31 5 62 0 55 1 56 30 56 39 0 50
-27 20 -49 -20 -16 -21 -19 -7 -31 14 -11 16 -10 10 4 -4 10 0 18 10 22 19 7
21 35 4 52 -7 7 -27 12 -45 12 l-33 0 0 -67z"/>
<path d="M1131 976 c-14 -17 -4 -46 17 -46 13 0 13 2 -3 13 -28 21 -9 40 31
34 21 -4 32 -2 29 4 -9 14 -61 11 -74 -5z"/>
<path d="M1293 930 c0 -36 2 -50 4 -32 2 17 2 47 0 65 -2 17 -4 3 -4 -33z"/>
<path d="M1407 983 c19 -4 23 -12 26 -66 l3 -62 2 62 c2 55 4 62 25 66 12 2 0
4 -28 4 -27 0 -40 -2 -28 -4z"/>
<path d="M1570 985 c0 -5 9 -21 20 -35 11 -14 20 -38 21 -55 l1 -30 8 31 c4
18 17 47 29 65 l23 34 -31 -35 c-17 -19 -31 -30 -31 -25 -1 14 -40 63 -40 50z"/>
<path d="M1856 974 c-24 -24 -20 -80 6 -98 12 -9 30 -16 40 -16 27 0 58 37 58
68 0 27 -26 62 -46 62 -4 0 2 -7 14 -16 41 -28 21 -104 -28 -104 -49 0 -69 76
-28 104 12 9 17 16 11 16 -6 0 -19 -7 -27 -16z"/>
<path d="M2052 928 l2 -63 3 57 4 57 37 4 37 4 -42 1 -43 2 2 -62z"/>
<path d="M1184 918 c13 -10 17 -21 12 -33 -5 -14 -14 -16 -44 -12 -25 5 -32 3
-22 -3 39 -25 95 4 74 38 -6 9 -17 18 -25 20 -8 2 -5 -2 5 -10z"/>
<path d="M1553 736 c68 -25 97 -66 97 -140 0 -34 -6 -52 -27 -77 -26 -30 -26
-31 -4 -20 12 7 32 33 43 58 18 40 18 51 8 88 -14 50 -40 77 -89 94 -48 16
-74 13 -28 -3z"/>
<path d="M1845 741 c48 -12 74 -33 95 -77 36 -73 17 -144 -46 -170 -41 -17
-46 -27 -6 -13 85 31 119 127 72 204 -21 34 -82 66 -123 64 -17 -1 -15 -3 8
-8z"/>
<path d="M128 728 c18 -18 16 -208 -2 -233 -13 -20 -12 -20 70 -17 72 3 86 6
95 23 10 20 9 20 -21 4 -17 -9 -48 -15 -68 -13 l-37 3 -3 109 c-2 71 1 113 9
122 9 12 6 14 -22 14 -26 0 -30 -3 -21 -12z"/>
<path d="M338 728 c8 -8 12 -49 12 -120 0 -91 -3 -108 -17 -117 -14 -8 -8 -10
27 -10 35 0 41 2 28 10 -15 9 -18 26 -18 117 0 71 4 112 12 120 9 9 4 12 -22
12 -26 0 -31 -3 -22 -12z"/>
<path d="M438 732 c6 -5 34 -62 61 -127 27 -66 53 -121 58 -122 4 -2 23 34 42
80 19 45 44 103 57 130 l22 47 -26 0 c-20 0 -23 -3 -13 -9 12 -7 7 -27 -26
-108 -21 -54 -43 -96 -49 -94 -13 5 -85 184 -79 199 3 8 -6 12 -28 12 -20 0
-27 -3 -19 -8z"/>
<path d="M728 728 c17 -17 17 -234 0 -241 -7 -3 23 -6 68 -6 50 -1 85 4 92 11
22 22 13 29 -18 13 -16 -8 -45 -15 -64 -15 -40 0 -50 19 -44 81 3 30 7 34 36
37 21 2 41 -3 52 -13 16 -15 17 -14 13 7 -4 20 -10 23 -51 23 l-47 0 0 50 0
50 45 3 c33 3 47 -1 57 -14 12 -17 13 -16 13 4 0 21 -4 22 -82 22 -64 0 -79
-3 -70 -12z"/>
<path d="M943 729 c14 -8 17 -26 17 -116 0 -79 -4 -111 -14 -122 -14 -15 -11
-16 27 -12 23 2 36 6 30 8 -8 3 -13 24 -13 59 0 50 2 54 23 54 17 0 34 -15 63
-57 28 -42 46 -59 64 -60 14 -1 19 0 12 3 -7 3 -30 32 -52 64 l-40 59 25 25
c30 30 32 59 5 86 -16 16 -33 20 -92 20 -55 -1 -69 -3 -55 -11z m121 -15 c37
-36 7 -104 -46 -104 -28 0 -28 1 -28 60 0 60 0 60 29 60 16 0 37 -7 45 -16z"/>
<path d="M1208 734 c16 -7 17 -225 1 -241 -8 -8 1 -12 30 -15 39 -3 39 -3 20
15 -17 15 -19 32 -19 127 l0 110 33 0 c55 0 94 -57 68 -99 -5 -8 -26 -17 -47
-21 -37 -7 -37 -8 -8 -9 65 -2 106 65 70 114 -11 15 -29 20 -87 22 -41 2 -68
0 -61 -3z"/>
<path d="M1451 715 c-88 -74 -51 -221 60 -239 50 -8 64 -1 16 8 -73 14 -121
110 -92 183 8 21 28 46 43 56 15 9 22 17 15 17 -6 0 -25 -11 -42 -25z"/>
<path d="M1769 723 c-37 -23 -59 -64 -59 -113 0 -74 38 -120 110 -134 35 -6
35 -6 -9 15 -44 23 -80 78 -81 125 0 41 23 86 54 105 17 10 27 19 21 19 -5 0
-22 -8 -36 -17z"/>
<path d="M2018 733 c15 -6 18 -243 2 -243 -5 0 -10 -3 -10 -7 0 -5 36 -7 79
-5 63 3 83 7 97 23 20 22 8 25 -20 4 -11 -8 -39 -15 -63 -15 l-44 0 3 125 3
125 -30 -1 c-16 0 -24 -3 -17 -6z"/>
</g>
</svg>
